<svg fill="none" xmlns="http://www.w3.org/2000/svg" viewBox="0 0 335 325">
    <g clip-path="url(#clip0)" opacity=".04">
        <path d="M260.6-145.04c-73.82 36.6-146.48 75.08-216.8 115.46-.6 0-1.17-.63-1.17-.63A4246.55 4246.55 0 00-173.6-145.04a2760.39 2760.39 0 00-74.4-35.33c6.97 117.98 13.95 236.6 20.34 354.58A3722 3722 0 0143.21 325.63c21.5-13.25 43.6-26.5 65.68-39.75a4113 4113 0 01135.43-75.7c23.25-12 45.92-24.61 69.75-35.97 6.98-117.98 13.95-236.6 20.35-354.58a3922.57 3922.57 0 00-73.82 35.33zm-12.2 283.92a4943.78 4943.78 0 00-137.76 75.7c.58-23.97.58-47.31 1.16-71.29a5047.12 5047.12 0 01139.5-75.7c-1.16 23.97-2.33 47.31-2.9 71.29zm5.8-141.96c-47.66 23.98-95.32 49.21-141.82 75.71a7316.8 7316.8 0 00-69.17 39.75c-.58 0-1.16-.63-1.16-.63a2436.24 2436.24 0 00-68.01-38.49 2574.25 2574.25 0 00-70.33-38.48c.58 23.97 1.16 47.32 2.32 71.29 23.25 12.62 46.5 25.24 69.17 38.49.58 23.97.58 47.32 1.16 71.3-45.33-25.88-90.67-51.11-137.75-75.72-2.9-70.66-6.4-141.96-9.3-212.62C-98.04-37.78-27.12.7 42.05 40.45c.58 0 .58.64 1.16.64v.63h.58s.58 0 .58.63v-.63C113.54 1.97 184.46-36.52 257.7-73.11c-1.16 22.71-2.32 46.06-3.48 70.03z"
              fill="#4869EE"/>
    </g>
    <defs>
        <clipPath id="clip0">
            <path fill="#fff" d="M-248-181h583v506h-583z"/>
        </clipPath>
    </defs>
</svg>
