<svg xmlns="http://www.w3.org/2000/svg" width="25.576" height="30.177"><path d="M7.266 29.154l.523-3.322-1.165-.027H1.061L4.927 1.292a.316.316 0 01.314-.268h9.38c3.114 0 5.263.648 6.385 1.927.526.6.861 1.227 1.023 1.917.17.724.173 1.589.007 2.644l-.012.077v.676l.526.298a3.69 3.69 0 011.065.812c.45.513.741 1.165.864 1.938.127.795.085 1.741-.123 2.812-.24 1.232-.628 2.305-1.152 3.183a6.547 6.547 0 01-1.825 2c-.696.494-1.523.869-2.458 1.109-.906.236-1.939.355-3.072.355h-.73c-.522 0-1.029.188-1.427.525a2.21 2.21 0 00-.744 1.328l-.055.299-.924 5.855-.042.215c-.011.068-.03.102-.058.125a.155.155 0 01-.096.035H7.266z" fill="#253b80"/><path d="M23.048 7.667c-.028.179-.06.362-.096.55-1.237 6.351-5.469 8.545-10.874 8.545H9.326c-.661 0-1.218.48-1.321 1.132L6.596 26.83l-.399 2.533a.704.704 0 00.695.814h4.881c.578 0 1.069-.42 1.16-.99l.048-.248.919-5.832.059-.32c.09-.572.582-.992 1.16-.992h.73c4.729 0 8.431-1.92 9.513-7.476.452-2.321.218-4.259-.978-5.622a4.667 4.667 0 00-1.336-1.03z" fill="#179bd7"/><path d="M21.754 7.151a9.757 9.757 0 00-1.203-.267 15.284 15.284 0 00-2.426-.177h-7.352a1.172 1.172 0 00-1.159.992L8.05 17.605l-.045.289a1.336 1.336 0 011.321-1.132h2.752c5.405 0 9.637-2.195 10.874-8.545.037-.188.068-.371.096-.55a6.594 6.594 0 00-1.017-.429 9.045 9.045 0 00-.277-.087z" fill="#222d65"/><path d="M9.614 7.699a1.169 1.169 0 011.159-.991h7.352c.871 0 1.684.057 2.426.177a9.757 9.757 0 011.481.353c.365.121.704.264 1.017.429.368-2.347-.003-3.945-1.272-5.392C20.378.682 17.853 0 14.622 0h-9.38c-.66 0-1.223.48-1.325 1.133L.01 25.898a.806.806 0 00.795.932h5.791l1.454-9.225 1.564-9.906z" fill="#253b80"/></svg>
