<svg xmlns="http://www.w3.org/2000/svg" fill-rule="evenodd" stroke-linejoin="round" stroke-miterlimit="2" clip-rule="evenodd" viewBox="0 0 2515 2452">
  <g transform="translate(-50 -41)">
    <path fill="none" d="M51 41h2513v2451H51z"/>
    <clipPath id="a">
      <path d="M51 41h2513v2451H51z"/>
    </clipPath>
    <g clip-path="url(#a)">
      <path fill="#8e735a" d="M1373 1867c70 243-10-3-10-3 3 2 7 3 10 3zm0 0l-4-14-4-3c-8-5-25-19-27-34-2-8-1-17 6-26 3-3 8-7 15-10 12-5 30-11 52-16 70-16 186-33 250-50 38-10 67-28 88-49 27-27 41-59 44-87 1-19-9-37-23-53-22-25-54-45-82-55-20-7-42-10-69-12-43-3-98-1-176-3a26 26 0 013-52c78 6 134 8 177 13 31 4 57 9 79 18 32 14 69 39 94 69 20 24 31 52 28 78-4 34-21 73-54 105-25 23-59 43-102 54-65 16-181 32-252 48-17 4-31 8-41 12-6 2-10 3-11 5-4 5-1 9 1 12 4 5 9 8 13 11l4 2 14-4-8-8s171-38 8 8a26 26 0 01-23 41z"/>
      <g transform="translate(-498 301) scale(.85289)">
        <path fill="#8e735a" d="M2183 1774c50 13 164 47 173 69 9 21 12 49-19 50-30 2-41-1-41-1s58 126 16 119c-43-8-167-182-138-230 7-3-41-19 9-7z"/>
        <clipPath id="b">
          <path d="M2183 1774c50 13 164 47 173 69 9 21 12 49-19 50-30 2-41-1-41-1s58 126 16 119c-43-8-167-182-138-230 7-3-41-19 9-7z"/>
        </clipPath>
        <g clip-path="url(#b)">
          <path fill="#75604e" d="M2320 2026c-4-58-33-140-42-151 7-5 44 30 88-14 43-44-41 224-46 165z"/>
        </g>
      </g>
      <path fill="#8e735a" d="M574 678c52-28 120-39 69 33 14 14 14 28-20 35l1 3-13 1v19c1 45 4 104 19 164 14 54 39 110 84 157h1c39 48 77 87 113 119 48 43 92 74 131 95 122 66 192 39 192 39a26 26 0 0118 49s-87 32-229-55c-40-24-85-58-134-104-35-34-73-75-113-125-37-40-61-86-77-132-24-73-27-147-30-203l-1-20-1-2a445 445 0 01-13-1c-56-5-54-27-31-48-13-25 7-29 34-24z"/>
      <g transform="translate(-815 41)">
        <path fill="#8e735a" d="M1414 736c63-52 190-174 137-174-53-1-106 60-106 60s-85-206-165-183c-37 18-15 64 1 89l24 37s-59 6-63 46c-4 41 20 20 77 58 56 39 87 60 94 81 5-15 1-8 1-14z"/>
        <clipPath id="c">
          <path d="M1414 736c63-52 190-174 137-174-53-1-106 60-106 60s-85-206-165-183c-37 18-15 64 1 89l24 37s-59 6-63 46c-4 41 20 20 77 58 56 39 87 60 94 81 5-15 1-8 1-14z"/>
        </clipPath>
        <g fill="#76604e" clip-path="url(#c)">
          <path d="M1252 576c41 1 96 43 92 23-5-19-88-96-97-138-10-43-37 113 5 115zm161-36c0 34 10 100 32 87 21-14 37-20 47-71 9-51-79-50-79-16z"/>
        </g>
      </g>
      <g transform="translate(-815 41)">
        <path fill="#121c42" d="M1966 1305c4 54-48 187-82 234s-73 96-53 125 41 62 123 76 135 46 158 59c22 13 82 19 90-105 7-123 40-252 106-331 21-25-346-113-342-58z"/>
        <clipPath id="d">
          <path d="M1966 1305c4 54-48 187-82 234s-73 96-53 125 41 62 123 76 135 46 158 59c22 13 82 19 90-105 7-123 40-252 106-331 21-25-346-113-342-58z"/>
        </clipPath>
        <g clip-path="url(#d)">
          <path fill="#0f1739" d="M2030 1410s-111 322-150 348c-38 27 276 89 276 89l168-229 31-311-290-1-35 104z"/>
          <path fill="#434b69" d="M1953 1579c0 9 3 15 7 20 5 5 12 8 20 8s15-3 21-8c4-5 8-12 8-21s-3-16-7-20c-5-5-11-7-20-7s-16 2-21 8c-5 4-8 11-8 20zm10 0c0-6 2-11 5-14s8-5 14-5 10 1 13 4 5 8 5 14c0 7-2 11-6 15-3 3-9 5-14 5s-9-2-12-5c-3-4-5-8-5-14zm13-94c0 9 3 16 8 21 5 6 12 9 20 9s15-3 20-10c4-5 7-12 7-21s-3-16-7-20c-5-5-11-7-20-7s-16 3-21 8c-4 5-7 12-7 20zm9 0c0-6 2-11 5-14s8-5 14-5 11 1 14 4 4 8 4 14c0 7-2 12-5 16s-8 6-13 6-10-2-13-6c-4-4-6-9-6-15z"/>
        </g>
      </g>
      <g transform="translate(-815 41)">
        <path fill="#4769ee" d="M1959 1285c11 45 44 132 60 135 16 4 147-47 187-66 39-19 47 27 68 27s18-13 26-12c7 2 46 88 94 91 47 4 66 3 29-12-38-16-63-41-44-38 18 3 46 7 28-17-17-24-31-61-31-61s-429-92-417-47z"/>
        <clipPath id="e">
          <path d="M1959 1285c11 45 44 132 60 135 16 4 147-47 187-66 39-19 47 27 68 27s18-13 26-12c7 2 46 88 94 91 47 4 66 3 29-12-38-16-63-41-44-38 18 3 46 7 28-17-17-24-31-61-31-61s-429-92-417-47z"/>
        </clipPath>
        <g clip-path="url(#e)">
          <path fill="#3e5deb" d="M1988 1307l33 72s125 2 180-29c55-32 62-13 67 4 4 17 14 40 39-10 9 30 60 78 69 5 8-73-388-42-388-42z"/>
        </g>
      </g>
      <g transform="translate(-815 41)">
        <path fill="#8e735a" d="M2271 455s10-259-276-311c-34 214-78 401-191 482l467-171z"/>
        <clipPath id="f">
          <path d="M2271 455s10-259-276-311c-34 214-78 401-191 482l467-171z"/>
        </clipPath>
        <g clip-path="url(#f)">
          <path fill="#846951" d="M2156 211s107 147-103 276c92-4 226-17 226-17s0-126-51-199c-42-61-72-60-72-60z"/>
          <path fill="#70543e" d="M1983 121c68 116 112 292 67 367s-258 104-258 104 123-586 191-471z"/>
          <clipPath id="g">
            <path d="M1983 121c68 116 112 292 67 367s-258 104-258 104 123-586 191-471z"/>
          </clipPath>
          <g clip-path="url(#g)">
            <path fill="#573d2a" d="M2053 298s20 117-94 241c-64 71 107 26 131-31 25-57-37-210-37-210z"/>
          </g>
        </g>
      </g>
      <g transform="translate(-815 41)">
        <path fill="#8d725a" d="M2473 493c-19-58-140-145-149-127 0 2 25 40 25 40s-55-1-56 9c0 7 45 56 45 56s154 80 135 22z"/>
        <clipPath id="h">
          <path d="M2473 493c-19-58-140-145-149-127 0 2 25 40 25 40s-55-1-56 9c0 7 45 56 45 56s154 80 135 22z"/>
        </clipPath>
        <g clip-path="url(#h)">
          <path fill="#836851" d="M2313 385c44 23 135 81 144 117 10 37 28-73 28-73l-170-89s-47 23-2 45z"/>
        </g>
      </g>
      <g transform="translate(-815 41)">
        <path fill="#8e735a" d="M2480 503s173-164 431-163c6 93-32 339-131 451-90-96-300-288-300-288z"/>
        <clipPath id="i">
          <path d="M2480 503s173-164 431-163c6 93-32 339-131 451-90-96-300-288-300-288z"/>
        </clipPath>
        <g clip-path="url(#i)">
          <path fill="#70543e" d="M2703 670s138-310 220-336c82-25-113 463-113 463l-107-127z"/>
          <clipPath id="j">
            <path d="M2703 670s138-310 220-336c82-25-113 463-113 463l-107-127z"/>
          </clipPath>
          <g clip-path="url(#j)">
            <path fill="#573d2a" d="M2727 718s125-342 196-397c72-55-310 287-310 287l114 110"/>
          </g>
        </g>
      </g>
      <g transform="translate(1 1)">
        <path fill="#8e735a" d="M583 860s148 346 601 502c452 155 992-169 1085-277-125-52-159-98-248-221-88-122-256-364-531-369s-437 111-558 186c-120 76-208 192-349 179z"/>
        <clipPath id="k">
          <path d="M583 860s148 346 601 502c452 155 992-169 1085-277-125-52-159-98-248-221-88-122-256-364-531-369s-437 111-558 186c-120 76-208 192-349 179z"/>
        </clipPath>
        <g clip-path="url(#k)">
          <path fill="#846951" d="M1565 510c147 55 328 279 388 373 53 86 61 95 10 118-50 23-64 34-48 43 16 8 81 29 63 49-17 19-68 71-64 74l143 115 317-188-718-621-154 11s-63-21 63 26zm-358 778s116 15 288-9c105-14 107-51 115-31 7 19 11 27 32 12 9-6 38-29 33-73-6-44-63-46-63-46s18 24 23 36c6 12-4 14-4 14s-65 50-162 67-262 30-262 30zm-66-126c-2 20-4 49 9 46 12-3 45-17 84-23s104-20 48-64c-56-43-139 21-141 41zm31-575c44 9 111 79 120 93 16-7 26-21 26-21s-50-62-99-71c-36-3-37-3-47-1z"/>
          <path fill="#846951" d="M1557 645c32 6 98 39 113 80 15 42 13 36 29 32s21-12 21-12-22-65-76-87c-55-23-118-19-87-13zM924 874s-17 162 101 186c117 23 218-44 263-112-188-36-364-74-364-74zm390 50s-17 169 117 185c128 16 207-39 238-97-59-25-355-88-355-88z"/>
          <path fill="#997d61" d="M862 686s514-201 725-189-309-85-309-85L862 686z"/>
          <path fill="#6e533d" d="M710 788s162 115 142 119c-20 5-108 18-97 23s115 70 100 74-207 34-207 34L516 841l194-53z"/>
          <path fill="#674c37" d="M2131 972s-203 64-194 69c8 4 86 40 78 45-9 6-90 70-79 76l168 84s194-121 191-160-164-114-164-114z"/>
          <g fill="#2d2014">
            <path d="M1009 1211s43 35 119 59c37 12 81 21 132 22a768 768 0 00200-24c84-21 154-50 187-77a5 5 0 00-7-8c-27 21-80 42-145 59a1025 1025 0 01-235 31c-49 0-92-7-127-17-75-21-117-53-117-53a5 5 0 10-7 8z"/>
            <path d="M1603 1146s12 7 22 21c5 7 10 16 13 26 1 6 2 11 1 18-1 11-5 24-15 39a4 4 0 107 5c12-16 18-30 20-43 1-8 0-15-1-22-3-12-10-22-17-30-12-14-27-21-27-21a4 4 0 10-3 7z"/>
          </g>
          <path fill="#2d2014" d="M1132 1085c16 30-5 93 22 99 26 6 44-18 79-19l60-3s0-83-46-86c-45 1-96 3-115 9z"/>
          <path fill="#3b2b1b" d="M1136 1094l-4-9c19-6 70-8 115-9 13 1 22 7 28 16-21 9-56 24-78 26-26 3-41-7-61-24z"/>
          <path fill="#fff" d="M926 880c0-117 106-195 213-195s181 72 181 162c0 89-79 193-206 193s-188-43-188-160z"/>
          <path fill="#fff" d="M1492 1101c112 0 211-85 211-190 0-106-86-170-180-170s-210 57-210 203c0 90 67 157 179 157z"/>
          <ellipse cx="1037.8" cy="828" fill="#2d2014" rx="26.2" ry="33.7" transform="matrix(1.2987 0 0 1 -288 31)"/>
          <ellipse cx="1037.8" cy="828" fill="#2d2014" rx="26.2" ry="33.7" transform="matrix(1.2987 0 0 1.0404 69 58)"/>
          <g>
            <path fill="#2d2014" d="M1149 604c17-12 43-15 72-7a197 197 0 0193 63 4 4 0 106-5 198 198 0 00-77-63c-17-7-34-10-50-10-20 0-37 6-48 15a4 4 0 004 7zm389 46a165 165 0 01104 17 165 165 0 0172 76 4 4 0 008-3 165 165 0 00-74-84 165 165 0 00-111-14 4 4 0 001 8z"/>
          </g>
        </g>
      </g>
      <path fill="#121c42" d="M1059 1755l1 730a31 31 0 0062 0l-1-730a31 31 0 00-62 0zM1230 1787l2 729a31 31 0 0062 0l-2-730a31 31 0 00-62 1z"/>
    </g>
  </g>
</svg>
