<?xml version="1.0" encoding="utf-8"?><!-- Uploaded to: SVG Repo, www.svgrepo.com, Generator: SVG Repo Mixer Tools -->
<svg width="800px" height="800px" viewBox="0 0 24 24" xmlns="http://www.w3.org/2000/svg"><path d="M4 3h1v2.155a9.762 9.762 0 0 1 14.333.366l-.526.91A8.773 8.773 0 0 0 5.581 6H8v1H4zm16.4 4.671l-2 3.465.866.5 1.187-2.057A8.767 8.767 0 0 1 13.18 20.71l.536.929a9.752 9.752 0 0 0 7.73-12.21l1.918 1.108.5-.867zm-9.096 13.791l-2-3.464-.866.5 1.127 1.952A8.761 8.761 0 0 1 3.738 9H2.674a9.778 9.778 0 0 0 6.688 12.429L7.34 22.596l.5.866z"/><path fill="none" d="M0 0h24v24H0z"/></svg>