<svg width="500" height="500" viewBox="0 0 500 500" fill="none" xmlns="http://www.w3.org/2000/svg">
<g clip-path="url(#clip0_24614_206)">
<path d="M19.6522 431.575C17.7256 430.462 16.4964 429.011 16.1592 427.45L7.72906 388.434C7.26828 386.301 8.51237 384.164 11.11 382.624L43.778 363.265C46.1517 361.859 49.4317 361.085 52.8323 361.131L230.352 363.491C233.644 363.535 236.768 364.343 239.017 365.732L265.459 382.064C268.012 383.64 269.177 385.804 268.624 387.939L258.02 428.843C257.632 430.34 256.422 431.726 254.568 432.797L146.829 495C142.046 497.761 134.291 497.761 129.508 495L19.6522 431.575Z" fill="#4E646F"/>
<rect width="153.447" height="153.447" rx="10" transform="matrix(0.866025 -0.5 0.866025 0.5 5.27881 387.988)" fill="#BDCAD0"/>
<rect width="119.855" height="192.181" transform="matrix(0.866025 -0.5 2.20305e-08 1 136.022 257.695)" fill="#C5380C"/>
<rect width="119.855" height="80.5922" transform="matrix(0.866025 -0.5 2.20305e-08 1 136.022 336.22)" fill="#C8C8C8"/>
<rect width="120.121" height="119.333" transform="matrix(0.866025 0.5 -0.866025 0.5 135.524 138.101)" fill="#F78346"/>
<path d="M178.527 162.919L195.772 172.874L176.131 184.328L158.802 174.322L178.527 162.919Z" fill="#3D444C"/>
<rect width="120.456" height="191.881" transform="matrix(0.866025 0.5 -2.20305e-08 1 32.1776 197.767)" fill="#F75D1F"/>
<rect width="120.456" height="80.4662" transform="matrix(0.866025 0.5 -2.20305e-08 1 32.1776 276.17)" fill="#FEFEFE"/>
<path d="M158.524 174.387L178.531 162.928L178.897 182.72L176.117 184.348L158.524 174.387Z" fill="#25282B"/>
<path d="M165.5 182.06C170.5 188.06 172.841 204.244 159.003 212.233C145.166 220.222 122.731 220.222 108.894 212.233C95.057 204.244 95 189.06 104.5 179.56C118.337 171.571 151.663 174.071 165.5 182.06Z" fill="#546B73"/>
<circle cx="28.0174" cy="28.0174" r="28.0174" transform="matrix(0.866025 -0.5 0.866025 0.5 85.4213 189.501)" fill="#81989B"/>
<circle cx="23.7988" cy="23.7988" r="23.7988" transform="matrix(0.866025 -0.5 0.866025 0.5 92.728 187.669)" fill="#FAA71B"/>
<path d="M108.107 151.56L105 187.532L163 188.56L158.857 152.587L108.107 151.56Z" fill="#FAA71B"/>
<circle cx="20.8987" cy="20.8987" r="20.3987" transform="matrix(0.866025 -0.5 0.866025 0.5 97.7512 153.458)" fill="#F8EA56" stroke="#FFF69A"/>
<path d="M36 200.56L133 255.56" stroke="#FFBC8F" stroke-width="2" stroke-linecap="round"/>
<path d="M195.875 172.936L475.09 11.6729L475.09 30.766L211.666 182.832L195.875 172.936Z" fill="#E2EEEA"/>
<rect width="33.7757" height="19.0263" transform="matrix(0.866025 -0.5 2.20305e-08 1 213.935 162.518)" fill="#C93324"/>
<rect width="33.7757" height="19.0263" transform="matrix(0.866025 -0.5 2.20305e-08 1 283.023 122.63)" fill="#C93324"/>
<rect width="33.7757" height="19.0263" transform="matrix(0.866025 -0.5 2.20305e-08 1 352.111 82.7419)" fill="#C93324"/>
<rect width="33.7757" height="19.0263" transform="matrix(0.866025 -0.5 2.20305e-08 1 421.199 42.854)" fill="#C93324"/>
<rect width="345.31" height="17.6076" transform="matrix(0.866025 -0.5 0.866025 0.5 160.795 175.562)" fill="white"/>
<rect width="33.7757" height="17.5461" transform="matrix(0.866025 -0.5 0.866025 0.5 198.74 153.716)" fill="#FF9D87"/>
<rect width="33.7757" height="17.5461" transform="matrix(0.866025 -0.5 0.866025 0.5 267.827 113.828)" fill="#FF9D87"/>
<rect width="33.7757" height="17.5461" transform="matrix(0.866025 -0.5 0.866025 0.5 336.915 73.9404)" fill="#FF9D87"/>
<rect width="33.7757" height="17.5461" transform="matrix(0.866025 -0.5 0.866025 0.5 406.003 34.0525)" fill="#FF9D87"/>
</g>
<defs>
<clipPath id="clip0_24614_206">
<rect width="500" height="500" fill="white"/>
</clipPath>
</defs>
</svg>
