<svg width="500" height="500" viewBox="0 0 500 500" fill="none" xmlns="http://www.w3.org/2000/svg">
        <path d="M19.6522 376.015C17.7256 374.903 16.4964 373.451 16.1592 371.89L7.72907 332.874C7.26828 330.742 8.51237 328.604 11.11 327.064L43.778 307.706C46.1517 306.299 49.4317 305.526 52.8323 305.571L230.352 307.932C233.644 307.975 236.768 308.783 239.017 310.172L265.459 326.504C268.012 328.081 269.177 330.244 268.624 332.379L258.02 373.283C257.632 374.781 256.422 376.166 254.568 377.237L146.829 439.44C142.046 442.202 134.291 442.202 129.508 439.44L19.6522 376.015Z" fill="#4E646F"/>
        <rect width="153.447" height="153.447" rx="10" transform="matrix(0.866025 -0.5 0.866025 0.5 5.27881 332.428)" fill="#BDCAD0"/>
        <rect width="119.855" height="192.181" transform="matrix(0.866025 -0.5 2.20305e-08 1 136.022 202.135)" fill="#C5380C"/>
        <rect width="21.4753" height="32.6614" transform="matrix(0.866025 -0.5 2.20305e-08 1 178.897 177.381)" fill="#3D444C"/>
        <rect width="119.855" height="80.5922" transform="matrix(0.866025 -0.5 2.20305e-08 1 136.022 280.661)" fill="#C8C8C8"/>
        <rect width="120.121" height="119.333" transform="matrix(0.866025 0.5 -0.866025 0.5 135.524 82.5408)" fill="#F78346"/>
        <rect width="24.2761" height="21.1609" transform="matrix(0.866025 0.5 -0.866025 0.5 176.364 154.838)" fill="#3D444C"/>
        <rect width="120.456" height="191.881" transform="matrix(0.866025 0.5 -2.20305e-08 1 32.1776 142.208)" fill="#F75D1F"/>
        <path d="M162.365 168.508L474.402 347.647L474.402 374.823L179.119 202.081L179.119 177.939L162.365 168.508Z" fill="#FEFEFE"/>
        <path d="M180.473 156.824L492.882 337.193L474.519 347.795L162.061 168.212L180.473 156.824Z" fill="#FFFCFD"/>
        <path d="M271.888 232.976L302.885 249.839L302.885 277.503L273.552 258.266L273.552 233.692L271.888 232.976Z" fill="#C93324"/>
        <path d="M291.103 223.562L320.806 240.711L303.703 250.585L273.405 233.852L291.103 223.562Z" fill="#FF9D87"/>
        <path d="M204 192.033L234.997 208.896L234.997 235L205.664 217.749L205.664 192.749L204 192.033Z" fill="#C93324"/>
        <path d="M223.817 181.709L253.52 198.858L235.544 209.236L205.211 192.523L223.817 181.709Z" fill="#FF9D87"/>
        <path d="M340.081 270.173L371.079 287.036L371.079 314.7L341.746 295.463L341.746 270.888L340.081 270.173Z" fill="#C93324"/>
        <path d="M359.297 260.758L389 277.907L371.897 287.781L341.598 271.048L359.297 260.758Z" fill="#FF9D87"/>
        <path d="M408.275 309.435L439.272 326.298L439.272 353.962L409.939 334.725L409.939 310.151L408.275 309.435Z" fill="#C93324"/>
        <path d="M427.49 300.021L457.193 317.17L440.09 327.044L409.792 310.311L427.49 300.021Z" fill="#FF9D87"/>
        <rect width="120.456" height="80.4662" transform="matrix(0.866025 0.5 -2.20305e-08 1 32.1776 220.611)" fill="#FEFEFE"/>
        <rect width="21.4753" height="27.0655" transform="matrix(0.866025 -0.5 2.20305e-08 1 474.402 347.74)" fill="#C8C8C8"/>
        <circle cx="28.9305" cy="28.9305" r="28.9305" transform="matrix(0.866025 -0.5 0.866025 0.5 83.8397 142.208)" fill="#546B73"/>
        <circle cx="28.0174" cy="28.0174" r="28.0174" transform="matrix(0.866025 -0.5 0.866025 0.5 85.4213 133.942)" fill="#81989B"/>
        <circle cx="23.7988" cy="23.7988" r="23.7988" transform="matrix(0.866025 -0.5 0.866025 0.5 92.728 132.109)" fill="#FAA71B"/>
        <path d="M108.161 96L105 131.972L164 133L159.786 97.0278L108.161 96Z" fill="#FAA71B"/>
        <circle cx="20.8987" cy="20.8987" r="20.3987" transform="matrix(0.866025 -0.5 0.866025 0.5 97.7512 97.8987)" fill="#F8EA56" stroke="#FFF69A"/>
        <path d="M36 145L133 200" stroke="#FFBC8F" stroke-width="2" stroke-linecap="round"/>
</svg>
