<svg xmlns="http://www.w3.org/2000/svg" xmlns:xlink="http://www.w3.org/1999/xlink" fill="none" viewBox="0 0 537 537" width="537" height="537"><g clip-path="url(#a)"><path fill="url(#b)" d="M273 535q-4 3-9 0l-9-4-12-7L46 423l-13-6-9-5q-4-3-6-8v-10l-1-14L2 139l-1-14-1-12q1-6 6-10l11-4 14-6L242 7l10-3 3-1 6-3h6l7 3 12 4 220 85 13 6 12 5q5 3 6 10l-1 11-1 15-7 110-1 20-7 111-1 12v4l-1 8q0 6-5 8l-8 3-3 2-11 5-46 23q-54 26-108 55l-43 24z"/><path fill="url(#c)" d="M442 154q-88 40-174 85A3433 3433 0 0 0 36 128l16 261q113 52 216 111a2432 2432 0 0 1 217-111l16-261zm-10 209q-56 27-110 56l1-53q54-28 111-55zm5-105a3396 3396 0 0 0-169 85l-111-57 2 52 55 28 1 53q-54-29-110-56l-7-157q87 40 170 85h1q83-45 170-85z"/><path fill="url(#d)" d="M442 154q-88 40-174 85l-1-1v52l1 1h1q83-45 170-85l-2 52a3396 3396 0 0 0-169 85h-1v156l1 1a2432 2432 0 0 1 217-112l16-260zm-10 209q-56 27-110 56l1-53q54-28 111-55z"/></g><defs><linearGradient id="b" x1="268.4" x2="268.4" y1="107.6" y2="304.8" gradientUnits="userSpaceOnUse"><stop stop-color="#333"/><stop offset="1"/></linearGradient><linearGradient id="c" x1="35.6" x2="501.2" y1="313.8" y2="313.8" gradientUnits="userSpaceOnUse"><stop stop-color="#fff"/><stop offset="1" stop-color="#ccc"/></linearGradient><linearGradient id="d" x1="267.3" x2="501.2" y1="313.8" y2="313.8" gradientUnits="userSpaceOnUse"><stop stop-color="#b7cd00"/><stop offset="1" stop-color="#95c11f"/></linearGradient><clipPath id="a"><path fill="#fff" d="M0 0h537v537H0z"/></clipPath></defs></svg>
