<svg width="0" height="0" class="hidden">
  <symbol viewBox="0 0 12 12" fill="none" xmlns="http://www.w3.org/2000/svg" id="home">
    <path d="M0 4v7a1 1 0 001 1h3V8h4v4h3a1 1 0 001-1V4L6 0 0 4z" fill="currentColor"/>
  </symbol>
  <symbol fill="none" xmlns="http://www.w3.org/2000/svg" viewBox="0 0 12 12" id="video">
    <path
      d="M10.5 1h-9A1.5 1.5 0 000 2.5v7A1.5 1.5 0 001.5 11h9A1.5 1.5 0 0012 9.5v-7A1.5 1.5 0 0010.5 1zM4 9V3l5 3-5 3z"
      fill="currentColor"/>
  </symbol>
  <symbol fill="none" xmlns="http://www.w3.org/2000/svg" viewBox="0 0 12 12" id="lines">
    <path d="M11 0H1a1 1 0 00-1 1v2a1 1 0 001 1h10a1 1 0 001-1V1a1 1 0 00-1-1zM12 6H0v2h12V6zM7 10H0v2h7v-2z"
          fill="currentColor"/>
  </symbol>
  <symbol fill="none" xmlns="http://www.w3.org/2000/svg" viewBox="0 0 12 12" id="comment">
    <path
      d="M6 0C2.7 0 0 2.36 0 5.27c0 2.9 2.7 5.26 6 5.26.35 0 .7-.02 1.04-.08l2.72 1.49a.5.5 0 00.74-.44V8.71A4.9 4.9 0 0012 5.27C12 2.37 9.3 0 6 0z"
      fill="currentColor"/>
  </symbol>
  <symbol fill="none" xmlns="http://www.w3.org/2000/svg" viewBox="0 0 12 10" id="camera">
    <path d="M8 3.5v-2A1.5 1.5 0 006.5 0h-5A1.5 1.5 0 000 1.5v7A1.5 1.5 0 001.5 10h5A1.5 1.5 0 008 8.5v-2L12 9V1L8 3.5z"
          fill="currentColor"/>
  </symbol>
  <symbol fill="none" xmlns="http://www.w3.org/2000/svg" viewBox="0 0 12 12" id="pen">
    <path d="M11.58.41a1.4 1.4 0 00-2 0L5 5 4 8l3-1 4.59-4.59a1.41 1.41 0 000-2z" fill="currentColor"/>
    <path d="M11.1 6.02a1 1 0 00-1.18.78A4 4 0 115.2 2.08 1 1 0 104.8.12a6 6 0 107.08 7.08 1 1 0 00-.78-1.18z"
          fill="currentColor"/>
  </symbol>
  <symbol fill="none" xmlns="http://www.w3.org/2000/svg" viewBox="0 0 12 12" id="search">
    <path d="M11.72 10.3L9.18 7.78a5 5 0 10-1.4 1.41l2.53 2.54a1 1 0 001.41-1.41zm-9.7-5.28a3 3 0 116 0 3 3 0 01-6 0z"
          fill="currentColor"/>
  </symbol>
  <symbol fill="none" xmlns="http://www.w3.org/2000/svg" viewBox="0 0 12 13" id="user">
    <path
      d="M9.54 6.69A4.27 4.27 0 016 9a4.27 4.27 0 01-3.54-2.31c-1.18.86-2 2.11-2.32 3.54a.5.5 0 00.2.51 9.99 9.99 0 0011.32 0 .5.5 0 00.2-.51 5.98 5.98 0 00-2.32-3.54z"
      fill="currentColor"/>
    <path d="M6 .5a3 3 0 00-3 3c0 1.61 1.26 4 3 4s3-2.39 3-4a3 3 0 00-3-3z" fill="currentColor"/>
  </symbol>
  <symbol fill="none" xmlns="http://www.w3.org/2000/svg" viewBox="0 0 24 24" id="clock">
    <path d="M11.99 2A10 10 0 1012 21.99 10 10 0 0011.99 2zM12 20a8 8 0 110-16 8 8 0 010 16z" fill="currentColor"/>
    <path d="M12.5 7H11v6l5.25 3.15.75-1.23-4.5-2.67V7z" fill="currentColor"/>
  </symbol>
  <symbol fill="none" xmlns="http://www.w3.org/2000/svg" viewBox="0 0 16 16" id="warning">
    <path
      d="M14.93 13.38L8.43 2.12A.5.5 0 008 1.88a.5.5 0 00-.43.25l-6.5 11.25a.5.5 0 00.43.76h13a.5.5 0 00.43-.76zM7.5 6.5c0-.07.06-.13.13-.13h.75c.06 0 .12.06.12.13v2.88c0 .06-.06.12-.12.12h-.75a.13.13 0 01-.13-.13V6.5zM8 12a.75.75 0 010-1.5.75.75 0 010 1.5z"
      fill="currentColor"/>
  </symbol>
  <symbol fill="none" xmlns="http://www.w3.org/2000/svg" viewBox="0 0 15 15" id="cross">
    <path
      d="M2.64 1.27L7.5 6.13l4.84-4.84A.92.92 0 0113 1a1 1 0 01.93 1.36.9.9 0 01-.2.3L8.84 7.5l4.89 4.89A.9.9 0 0114 13a1 1 0 01-1 1 .92.92 0 01-.69-.27L7.5 8.87l-4.85 4.85A.92.92 0 012 14a1 1 0 01-.93-1.36.9.9 0 01.2-.3L6.16 7.5 1.27 2.61A.9.9 0 011 2a1 1 0 011-1c.24 0 .47.1.64.27z"
      fill="currentColor"/>
  </symbol>
  <symbol fill="none" xmlns="http://www.w3.org/2000/svg" viewBox="0 0 24 24" id="check">
    <path
      d="M12 2a10.01 10.01 0 000 20 10.01 10.01 0 000-20zm-2 14.41l-3.71-3.7 1.41-1.42 2.3 2.3 5.3-5.3 1.4 1.42-6.7 6.7z"
      fill="currentColor"/>
  </symbol>
  <symbol fill="none" xmlns="http://www.w3.org/2000/svg" viewBox="0 0 16 16" id="edit">
    <path d="M16 14H0v2h16v-2zM11.7 3.3c.4-.4.4-1 0-1.4L10.1.3c-.4-.4-1-.4-1.4 0L0 9v3h3l8.7-8.7z" fill="currentColor"/>
  </symbol>
  <symbol fill="none" xmlns="http://www.w3.org/2000/svg" viewBox="0 0 16 16" id="clone">
    <path d="M7 8H1c-.6 0-1 .4-1 1v6c0 .6.4 1 1 1h6c.6 0 1-.4 1-1V9c0-.6-.4-1-1-1z" fill="currentColor"/>
    <path d="M11 4H2v2h8v8h2V5c0-.6-.4-1-1-1z" fill="currentColor"/>
    <path d="M15 0H6v2h8v8h2V1c0-.6-.4-1-1-1z" fill="currentColor"/>
  </symbol>
  <symbol fill="none" xmlns="http://www.w3.org/2000/svg" viewBox="0 0 16 16" id="delete">
    <path fill-rule="evenodd" clip-rule="evenodd"
          d="M0 8c0-4.4 3.6-8 8-8s8 3.6 8 8-3.6 8-8 8-8-3.6-8-8zm10.1 3.5l1.4-1.4L9.4 8l2.1-2.1-1.4-1.4L8 6.6 5.9 4.5 4.5 5.9 6.6 8l-2.1 2.1 1.4 1.4L8 9.4l2.1 2.1z"
          fill="currentColor"/>
  </symbol>
  <symbol fill="none" xmlns="http://www.w3.org/2000/svg" viewBox="0 0 24 24" id="trash">
    <path
      d="M5 20c0 1.1.9 2 2 2h10a2 2 0 002-2V8h2V6h-4V4a2 2 0 00-2-2H9a2 2 0 00-2 2v2H3v2h2v12zM9 4h6v2H9V4zM8 8h9v12H7V8h1z"
      fill="currentColor"/>
    <path d="M9 10h2v8H9v-8zm4 0h2v8h-2v-8z" fill="currentColor"/>
  </symbol>
  <symbol id="reply" fill="none" xmlns="http://www.w3.org/2000/svg" viewBox="0 0 24 24">
    <path
      d="M10 9V7.41a1 1 0 00-1.71-.71L3.7 11.29a1 1 0 000 1.41l4.59 4.59a1 1 0 001.71-.7V14.9c5 0 8.5 1.6 11 5.1-1-5-4-10-11-11z"
      fill="currentColor"/>
  </symbol>
  <symbol id="player" fill="none" xmlns="http://www.w3.org/2000/svg" viewBox="0 0 16 16">
    <path d="M3 14h10v2H3v-2z" fill="currentColor"/>
    <path fill-rule="evenodd" clip-rule="evenodd"
          d="M1 12h14c.6 0 1-.4 1-1V1c0-.6-.4-1-1-1H1C.4 0 0 .4 0 1v10c0 .6.4 1 1 1zm13-2H2V2h12v8z"
          fill="currentColor"/>
    <path d="M6 9l4-3-4-3v6z" fill="currentColor"/>
  </symbol>
  <symbol fill="none" xmlns="http://www.w3.org/2000/svg" viewBox="0 0 16 16" id="comments">
    <path
      d="M1.5 8.42v-.16l-.1-.14A4.37 4.37 0 01.5 5.5c0-2.69 2.6-5 6-5s6 2.31 6 5-2.6 5-6 5c-.94 0-1.82-.19-2.61-.5l-.23-.1-.2.12-1.96 1.12V8.42zm6.88 4.9c3.14-.6 5.7-2.65 6.68-5.37.29.48.44 1 .44 1.55 0 .78-.31 1.53-.88 2.17l-.75.83h.63v2.64l-2.95-1.68-.15-.1-.18.04a7.47 7.47 0 01-2.84-.08z"
      fill="currentColor" stroke="currentColor"/>
  </symbol>
  <symbol fill="none" xmlns="http://www.w3.org/2000/svg" viewBox="0 0 24 24" id="sort">
    <path d="M17.25 15.88l-4.5 4.5V.82h-1.5v19.56l-4.5-4.5-1.06 1.06L12 23.25l6.31-6.31-1.06-1.06z"
          fill="currentColor"/>
  </symbol>
  <symbol xmlns="http://www.w3.org/2000/svg" viewBox="0 0 22 22" id="breadcrumb">
    <path fill="currentColor" d="M8.15 14.78l3.84-3.86-3.84-3.86 1.18-1.18 5.04 5.04-5.04 5.04z"/>
  </symbol>
  <symbol id="lock" xmlns="http://www.w3.org/2000/svg" fill="none" viewBox="0 0 24 24">
    <path fill="#000" fill-rule="evenodd" d="M7 10V7a5 5 0 1110 0v3h1a2 2 0 012 2v8a2 2 0 01-2 2H6a2 2 0 01-2-2v-8a2 2 0 012-2h1zm-1 2v8h12v-8H6zm3-2h6V7a3 3 0 00-6 0v3zm5 4h2v4h-2v-4z" clip-rule="evenodd"/>
  </symbol>
  <symbol id="cloud" xmlns="http://www.w3.org/2000/svg" fill="none" viewBox="0 0 20 17">
    <path stroke="currentColor" stroke-linecap="round" stroke-linejoin="round" stroke-width="2" d="M13.28 11.83L10 8.5m0 0l-3.27 3.33M10 8.5V16m6.87-2.18a4.24 4.24 0 00.55-6.95 4.04 4.04 0 00-2.5-.87h-1.04a6.71 6.71 0 00-3.7-4.43 6.44 6.44 0 00-7.92 2.16 6.73 6.73 0 00.38 8.35"/>
  </symbol>
  <symbol id="star"  viewBox="0 0 16 16" fill="none" xmlns="http://www.w3.org/2000/svg"><path d="M14.189 5.517l-3.967-.576-1.774-3.596a.502.502 0 00-.897 0L5.778 4.941l-3.967.576a.5.5 0 00-.277.853l2.87 2.799-.678 3.951a.5.5 0 00.725.527L8 11.78l3.548 1.866a.5.5 0 00.725-.527l-.678-3.951 2.87-2.799a.498.498 0 00-.277-.853z" fill="currentColor"/></symbol>
  <symbol xmlns="http://www.w3.org/2000/svg" fill="none" viewBox="0 0 16 16" id="info">
    <path fill="currentColor" d="M8.93 6.59l-2.29.29-.08.38.45.08c.3.07.35.17.29.47l-.74 3.47c-.2.9.1 1.31.8 1.31.55 0 1.18-.25 1.47-.6l.09-.41c-.2.18-.5.25-.69.25-.27 0-.37-.2-.3-.54l1-4.7zM8 5.5a1 1 0 100-2 1 1 0 000 2z"/>
  </symbol>
  <symbol xmlns="http://www.w3.org/2000/svg" fill="currentColor" viewBox="0 0 20 20" id="bell">
    <path fill="currentColor" d="M10 18l2-2H8l2 2zm4-8V8c0-2-1-4-3-4V3l-1-1-1 1v1C7 4 6 6 6 8v2l-2 3v2h12v-2l-2-3z"/>
  </symbol>
  <symbol xmlns="http://www.w3.org/2000/svg" fill="none" viewBox="0 0 20 20" id="eye">
    <path fill="currentColor" d="M10 4.4C3.439 4.4 0 9.232 0 10c0 .766 3.439 5.6 10 5.6 6.56 0 10-4.834 10-5.6 0-.768-3.44-5.6-10-5.6zm0 9.907c-2.455 0-4.445-1.928-4.445-4.307 0-2.379 1.99-4.309 4.445-4.309s4.444 1.93 4.444 4.309c0 2.379-1.989 4.307-4.444 4.307zM10 10c-.407-.447.663-2.154 0-2.154-1.228 0-2.223.965-2.223 2.154s.995 2.154 2.223 2.154c1.227 0 2.223-.965 2.223-2.154 0-.547-1.877.379-2.223 0z"/>
  </symbol>
</svg>
