<svg viewBox="0 0 277.8 37" xmlns="http://www.w3.org/2000/svg"><g fill="#94a3b8"><path d="m0 .6h9.9v6.8h-9.9zm0 35.8v-25.9h9.9v25.9z"/><path d="m13.5 10.5h9.3v4.2a14 14 0 0 1 4.2-3.7 11.4 11.4 0 0 1 5.2-1.1 8.4 8.4 0 0 1 6.4 2.4c1.6 1.7 2.4 4.2 2.4 7.6v16.5h-10v-14.3a5.1 5.1 0 0 0 -.9-3.4 3.3 3.3 0 0 0 -2.6-1 3.5 3.5 0 0 0 -2.9 1.3c-.8 1-1.1 2.6-1.1 5v12.4h-10z"/><path d="m55.9 10.5h4.8v7.2h-4.8v18.7h-9.9v-18.7h-3.7v-7.2h3.7v-1.2a22.6 22.6 0 0 1 .3-3.5 8.1 8.1 0 0 1 1.3-3.1 6.7 6.7 0 0 1 2.6-2 13.3 13.3 0 0 1 5-.7 67.5 67.5 0 0 1 7.6.6l-1.1 6-2.9-.3a3.1 3.1 0 0 0 -1.9.5 2.2 2.2 0 0 0 -.8 1.4 9.9 9.9 0 0 0 -.2 2.3z"/><path d="m60.3 23.5a13 13 0 0 1 4-9.8c2.6-2.5 6.2-3.8 10.8-3.8s9.1 1.5 11.8 4.5a13.2 13.2 0 0 1 3.2 9 13.3 13.3 0 0 1 -4 9.8c-2.7 2.5-6.3 3.8-11 3.8a15.5 15.5 0 0 1 -10.1-3.2 12.5 12.5 0 0 1 -4.7-10.3zm9.9 0a8 8 0 0 0 1.4 5.1 4.6 4.6 0 0 0 3.6 1.7 4.4 4.4 0 0 0 3.5-1.7 8.1 8.1 0 0 0 1.4-5.2 7.6 7.6 0 0 0 -1.4-5 4.6 4.6 0 0 0 -3.5-1.7 4.8 4.8 0 0 0 -3.6 1.7 8 8 0 0 0 -1.4 5.1z"/><path d="m91.9 10.5h9.3v3.8a13.4 13.4 0 0 1 4-3.4 10.9 10.9 0 0 1 5-1 9.9 9.9 0 0 1 4.9 1.1 7.3 7.3 0 0 1 2.9 3.3 15.3 15.3 0 0 1 4.3-3.5 11.4 11.4 0 0 1 4.8-.9 8.5 8.5 0 0 1 6.5 2.5c1.5 1.6 2.3 4.2 2.3 7.7v16.3h-10v-14.8a4.8 4.8 0 0 0 -.6-2.6 3 3 0 0 0 -2.5-1.3 3.5 3.5 0 0 0 -2.8 1.2 6.1 6.1 0 0 0 -1.1 4.1v13.4h-10v-14.3a6.6 6.6 0 0 0 -.2-2.3 2.6 2.6 0 0 0 -1.1-1.6 2.8 2.8 0 0 0 -1.8-.6 3.6 3.6 0 0 0 -2.8 1.3c-.8.9-1.1 2.3-1.1 4.3v13.2h-10z"/><path d="m148.9 18.9-9.5-1a12.2 12.2 0 0 1 1.5-3.9 8.4 8.4 0 0 1 3-2.5 12.3 12.3 0 0 1 3.7-1.2 28.2 28.2 0 0 1 5.2-.4 44.8 44.8 0 0 1 7.2.5 8.6 8.6 0 0 1 4.5 2.1 7.2 7.2 0 0 1 2 3.1 10.6 10.6 0 0 1 .7 3.8v11.5a11.2 11.2 0 0 0 .3 2.9 13 13 0 0 0 1 2.6h-9.4l-.7-1.5a13.9 13.9 0 0 1 -.3-1.7 11.5 11.5 0 0 1 -3.9 2.7 16.6 16.6 0 0 1 -6.1 1.1c-3.1 0-5.5-.7-7.1-2.2a6.8 6.8 0 0 1 -2.4-5.3 7.2 7.2 0 0 1 1.7-4.8c1.2-1.3 3.3-2.2 6.4-2.8l7.3-1.6 3.5-1.2a3.7 3.7 0 0 0 -.7-2.6 3.8 3.8 0 0 0 -2.7-.7 7.3 7.3 0 0 0 -3.7.8 4.2 4.2 0 0 0 -1.5 2.3zm8.6 5.2-4.3 1.3a9.2 9.2 0 0 0 -3.8 1.6 2.5 2.5 0 0 0 -.8 1.8 2.2 2.2 0 0 0 .8 1.9 3.3 3.3 0 0 0 2.4.8 6.8 6.8 0 0 0 3.1-.8 5.5 5.5 0 0 0 2-2 6.7 6.7 0 0 0 .6-3z"/><path d="m171.2 10.5h9.2v4.2a14 14 0 0 1 4.2-3.7 12.1 12.1 0 0 1 5.2-1.1 8.7 8.7 0 0 1 6.5 2.4c1.5 1.7 2.3 4.2 2.3 7.6v16.5h-10v-14.3a5.1 5.1 0 0 0 -.9-3.4 3 3 0 0 0 -2.5-1 3.8 3.8 0 0 0 -3 1.3c-.7 1-1.1 2.6-1.1 5v12.4h-9.9z"/><path d="m202 .6h9.9v6.8h-9.9zm0 9.9h9.9v25.9h-9.9z"/><path d="m225.2 18.7-9.5-1a11.8 11.8 0 0 1 1.5-3.9 10.3 10.3 0 0 1 2.9-2.5 11.5 11.5 0 0 1 3.8-1.1 27.8 27.8 0 0 1 5.2-.5 44.8 44.8 0 0 1 7.2.5 10.4 10.4 0 0 1 4.5 2.1 8.7 8.7 0 0 1 2 3.1 11.5 11.5 0 0 1 .7 3.9v11.4a19.5 19.5 0 0 0 .2 2.9 12.7 12.7 0 0 0 1.1 2.7h-9.4a15.8 15.8 0 0 1 -.7-1.6 11.6 11.6 0 0 1 -.3-1.6 15.3 15.3 0 0 1 -3.9 2.7 16.8 16.8 0 0 1 -6.2 1c-3 0-5.4-.7-7-2.1a6.8 6.8 0 0 1 -2.4-5.3 7.3 7.3 0 0 1 1.7-4.9c1.2-1.2 3.3-2.2 6.4-2.8s6.2-1.3 7.3-1.6l3.5-1.2a3.4 3.4 0 0 0 -.8-2.5 3.7 3.7 0 0 0 -2.6-.8 7 7 0 0 0 -3.7.8 4.6 4.6 0 0 0 -1.5 2.3zm8.6 5.3c-1.4.4-2.8.9-4.3 1.2a10.9 10.9 0 0 0 -3.8 1.6 2.5 2.5 0 0 0 -.8 1.9 2.4 2.4 0 0 0 .8 1.9 3.3 3.3 0 0 0 2.4.7 5.8 5.8 0 0 0 3.1-.8 5.3 5.3 0 0 0 2-1.9 6.8 6.8 0 0 0 .6-3.1z"/><path d="m247.5.5h10.1v18.4l7.4-8.6h12.3l-9.3 9.1 9.8 16.9h-11.2l-5.2-10.4-3.8 3.6v6.8h-10.1z"/></g></svg>
