<svg width="500" height="500" viewBox="0 0 500 500" fill="none" xmlns="http://www.w3.org/2000/svg">
<g clip-path="url(#clip0_21178_3011)">
<rect width="500" height="500" fill="#BDBDBD"/>
<path d="M-57 0H768V500H-57V0Z" fill="black"/>
<path d="M-57 0H768V400H-57V0Z" fill="#A9A9A9"/>
<path d="M-57 0H768V300H-57V0Z" fill="white"/>
<path d="M-57 0H768V200H-57V0Z" fill="#A7D379"/>
<path d="M-57 0H768V100H-57V0Z" fill="#3DA542"/>
<path d="M253.971 460.086C251.848 461.265 248.31 461.344 246.187 460.086C244.064 458.828 241.076 457.255 239.661 456.39C238.245 455.525 233.921 453.245 230.068 451.2L75.0187 371.469C71.1661 369.582 66.6844 367.38 65.1119 366.673C63.5394 365.965 60.3157 364.471 57.957 363.37C55.5982 362.269 53.5539 359.281 53.3967 356.687C53.2394 354.092 53.0036 350.553 52.9249 348.902C52.8463 347.172 52.5318 342.219 52.2173 337.973L40.2662 148.552C40.0303 144.227 39.6372 139.116 39.5586 137.15C39.48 135.185 39.1655 131.096 39.0082 128.108C38.851 125.041 40.9738 121.582 43.7257 120.402C46.4776 119.144 50.3303 117.493 52.2959 116.628C54.2616 115.763 59.0577 113.719 63.0676 111.989L229.361 44.9169C233.371 43.3443 236.909 42.0076 237.145 41.929C237.381 41.8504 238.403 41.4572 239.425 41.064C240.447 40.6709 242.413 39.9632 243.907 39.4128C245.4 38.8624 247.759 38.8624 249.174 39.4128C250.59 39.9632 252.87 40.6709 254.128 41.1427C255.386 41.6145 259.789 43.1871 263.799 44.681L436.461 111.596C440.47 113.247 445.345 115.291 447.39 116.077C449.355 116.942 453.365 118.594 456.196 119.852C459.026 121.031 461.149 124.57 460.992 127.636C460.835 130.703 460.52 134.87 460.441 136.836C460.284 138.802 459.97 143.913 459.734 148.237L454.23 235.045C453.994 239.37 453.522 246.447 453.208 250.771L447.861 337.658C447.625 341.983 447.311 346.229 447.232 347.094C447.154 347.959 447.075 349.374 446.996 350.16C446.918 351.025 446.761 353.777 446.603 356.372C446.446 358.967 444.402 361.955 442.043 363.056C439.684 364.157 437.168 365.336 436.382 365.729C435.596 366.122 434.338 366.673 433.551 367.066C432.765 367.459 428.913 369.268 424.981 371.155C424.981 371.155 403.045 381.612 388.892 388.611C360.43 402.685 331.967 417.311 304.291 432.25C290.453 439.72 269.932 451.122 269.932 451.122C266.158 453.245 261.912 455.604 260.497 456.39C259.003 457.176 256.093 458.828 253.971 460.086Z" fill="url(#paint0_linear_21178_3011)"/>
<path d="M385.798 160.059C339.314 181.163 293.932 203.448 249.571 226.756C205.211 203.526 159.75 181.32 113.266 160.216C97.7718 153.208 82.1199 146.279 66.3894 139.506C70.7153 208.015 75.0412 276.444 79.3671 344.874C137.963 372.198 194.751 401.492 249.493 432.517V432.596H249.571C263.257 424.8 277.021 417.162 290.943 409.681C318.864 394.562 347.258 379.915 376.045 365.663C390.438 358.576 404.989 351.567 419.697 344.716C424.023 276.287 428.27 207.857 432.596 139.428C416.866 146.121 401.292 153.051 385.798 160.059ZM378.011 324.479C348.752 338.653 319.887 353.3 291.572 368.419C291.808 354.717 291.965 341.015 292.201 327.314C320.988 312.195 350.168 297.548 379.899 283.453C379.348 297.076 378.719 310.777 378.011 324.479ZM381.944 242.269C351.82 256.443 322.168 271.011 292.909 286.13C278.358 293.69 263.886 301.328 249.571 309.045C235.257 301.328 220.785 293.69 206.155 286.13C191.526 278.57 176.818 271.168 162.031 263.924C162.424 277.626 162.896 291.327 163.289 305.029C177.919 312.352 192.391 319.754 206.784 327.235C207.02 340.937 207.178 354.638 207.414 368.34C179.099 353.3 150.312 338.653 120.974 324.558C119.008 283.453 117.12 242.348 115.154 201.243C160.93 222.346 205.605 244.474 249.257 267.704C249.257 267.782 249.257 267.861 249.257 267.94C249.335 267.861 249.414 267.861 249.493 267.861C249.65 267.94 249.807 268.019 249.965 268.097C249.965 267.94 249.965 267.782 249.965 267.546C293.46 244.316 338.134 222.11 383.753 201.085C383.202 214.866 382.573 228.567 381.944 242.269Z" fill="white"/>
</g>
<defs>
<linearGradient id="paint0_linear_21178_3011" x1="250.027" y1="123.737" x2="250.027" y2="278.772" gradientUnits="userSpaceOnUse">
<stop stop-color="#333333"/>
<stop offset="1"/>
</linearGradient>
<clipPath id="clip0_21178_3011">
<rect width="500" height="500" fill="white"/>
</clipPath>
</defs>
</svg>
