<svg width="240" height="54" viewBox="0 0 240 54" fill="none" xmlns="http://www.w3.org/2000/svg">
<g clip-path="url(#clip0_10_29)">
<path d="M16.0502 54C13.6169 54 11.4502 53.6333 9.5502 52.9C7.6502 52.1667 6.03353 51.15 4.7002 49.85C3.4002 48.55 2.4002 47.05 1.7002 45.35C1.03353 43.65 0.700195 41.8333 0.700195 39.9V38.7C0.700195 36.7 1.0502 34.8333 1.7502 33.1C2.48353 31.3667 3.51687 29.85 4.8502 28.55C6.18353 27.25 7.8002 26.2333 9.7002 25.5C11.6002 24.7667 13.7169 24.4 16.0502 24.4C18.4169 24.4 20.5335 24.7667 22.4002 25.5C24.3002 26.2333 25.9169 27.25 27.2502 28.55C28.5835 29.85 29.6002 31.3667 30.3002 33.1C31.0335 34.8333 31.4002 36.7 31.4002 38.7V39.9C31.4002 41.8333 31.0502 43.65 30.3502 45.35C29.6835 47.05 28.6835 48.55 27.3502 49.85C26.0502 51.15 24.4502 52.1667 22.5502 52.9C20.6502 53.6333 18.4835 54 16.0502 54ZM16.0502 46.4C17.4502 46.4 18.6002 46.1 19.5002 45.5C20.4335 44.9 21.1335 44.0667 21.6002 43C22.0669 41.9 22.3002 40.6667 22.3002 39.3C22.3002 37.8667 22.0502 36.6167 21.5502 35.55C21.0835 34.45 20.3835 33.5833 19.4502 32.95C18.5169 32.3167 17.3835 32 16.0502 32C14.7169 32 13.5835 32.3167 12.6502 32.95C11.7169 33.5833 11.0002 34.45 10.5002 35.55C10.0335 36.6167 9.8002 37.8667 9.8002 39.3C9.8002 40.6667 10.0335 41.9 10.5002 43C10.9669 44.0667 11.6669 44.9 12.6002 45.5C13.5335 46.1 14.6835 46.4 16.0502 46.4ZM79.1193 53.9C75.1193 53.9 71.9693 53.0833 69.6693 51.45C67.3693 49.7833 66.136 47.45 65.9693 44.45H73.9693C74.1027 45.2833 74.6193 46 75.5193 46.6C76.4193 47.2 77.686 47.5 79.3193 47.5C80.486 47.5 81.486 47.3333 82.3193 47C83.186 46.6333 83.6193 46.05 83.6193 45.25C83.6193 44.55 83.286 43.9833 82.6193 43.55C81.9527 43.0833 80.736 42.7667 78.9693 42.6L77.0693 42.4C73.536 42.0333 70.936 41.0667 69.2693 39.5C67.6027 37.9333 66.7693 35.9667 66.7693 33.6C66.7693 31.5667 67.2693 29.9 68.2693 28.6C69.2693 27.2667 70.6527 26.2667 72.4193 25.6C74.186 24.9333 76.2027 24.6 78.4693 24.6C82.1693 24.6 85.1527 25.4167 87.4193 27.05C89.686 28.65 90.886 30.9667 91.0193 34H83.0193C82.886 33.1667 82.436 32.4667 81.6693 31.9C80.9027 31.3 79.8027 31 78.3693 31C77.336 31 76.486 31.1833 75.8193 31.55C75.186 31.9167 74.8693 32.4333 74.8693 33.1C74.8693 33.8 75.1693 34.3167 75.7693 34.65C76.4027 34.9833 77.4027 35.2333 78.7693 35.4L80.6693 35.6C84.2027 35.9667 86.9193 36.95 88.8193 38.55C90.7527 40.1167 91.7193 42.1833 91.7193 44.75C91.7193 46.65 91.2027 48.2833 90.1693 49.65C89.1693 51.0167 87.7193 52.0667 85.8193 52.8C83.9527 53.5333 81.7193 53.9 79.1193 53.9ZM106.752 53L111.652 26.3H121.152L126.752 53H119.852L114.052 26.5H118.252L112.952 53H106.752ZM105.052 53L105.002 45.4H110.502L110.552 53H105.052ZM100.602 53L93.3525 25.4H102.252L108.952 53H100.602ZM122.302 53L122.352 45.4H127.852L127.802 53H122.302ZM124.502 53L130.552 25.4H138.852L132.252 53H124.502ZM144.567 53V25.4H153.667V53H144.567ZM141.067 32V25.4H153.667V32H141.067ZM148.317 23.2C146.65 23.2 145.417 22.7833 144.617 21.95C143.85 21.0833 143.467 19.9833 143.467 18.65C143.467 17.3166 143.85 16.2333 144.617 15.4C145.417 14.5333 146.633 14.1 148.267 14.1C149.933 14.1 151.15 14.5333 151.917 15.4C152.683 16.2333 153.067 17.3166 153.067 18.65C153.067 19.9833 152.683 21.0833 151.917 21.95C151.15 22.7833 149.95 23.2 148.317 23.2ZM173.507 53.4C170.507 53.4 168.107 53.0333 166.307 52.3C164.54 51.5667 163.257 50.35 162.457 48.65C161.657 46.95 161.257 44.65 161.257 41.75L161.307 18.2H169.707L169.657 42C169.657 43.2333 169.973 44.1833 170.607 44.85C171.273 45.4833 172.223 45.8 173.457 45.8H177.257V53.4H173.507ZM157.257 32V25.4H177.257V32H157.257ZM194.636 54C192.236 54 190.153 53.6167 188.386 52.85C186.62 52.05 185.136 50.9833 183.936 49.65C182.77 48.3167 181.886 46.8 181.286 45.1C180.72 43.4 180.436 41.6333 180.436 39.8V38.8C180.436 36.8667 180.736 35.0333 181.336 33.3C181.97 31.5667 182.886 30.0333 184.086 28.7C185.286 27.3667 186.77 26.3167 188.536 25.55C190.303 24.7833 192.336 24.4 194.636 24.4C197.17 24.4 199.403 24.9 201.336 25.9C203.27 26.9 204.803 28.2833 205.936 30.05C207.103 31.7833 207.753 33.7833 207.886 36.05H198.986C198.886 34.95 198.47 34.0167 197.736 33.25C197.036 32.4833 196.003 32.1 194.636 32.1C193.47 32.1 192.503 32.4 191.736 33C191.003 33.6 190.453 34.4333 190.086 35.5C189.72 36.5667 189.536 37.8333 189.536 39.3C189.536 40.6667 189.686 41.8833 189.986 42.95C190.32 44.0167 190.853 44.85 191.586 45.45C192.353 46.0167 193.37 46.3 194.636 46.3C195.57 46.3 196.353 46.1333 196.986 45.8C197.62 45.4667 198.12 45 198.486 44.4C198.853 43.7667 199.086 43.0333 199.186 42.2H208.086C207.953 44.5333 207.286 46.5833 206.086 48.35C204.92 50.1167 203.353 51.5 201.386 52.5C199.42 53.5 197.17 54 194.636 54ZM212.7 53V16.5H221.8V37.3H220.6C220.6 34.5 220.95 32.15 221.65 30.25C222.35 28.35 223.367 26.9167 224.7 25.95C226.067 24.9833 227.75 24.5 229.75 24.5H230.15C233.15 24.5 235.434 25.5833 237 27.75C238.6 29.9167 239.4 33.1 239.4 37.3V53H230.3V36.95C230.3 35.6833 229.917 34.65 229.15 33.85C228.384 33.0167 227.367 32.6 226.1 32.6C224.834 32.6 223.8 33.0167 223 33.85C222.2 34.65 221.8 35.7167 221.8 37.05V53H212.7Z" fill="#94a3b8"/>
<path d="M35.7822 53V45C35.7822 43.4 36.0489 42 36.5822 40.8C37.1489 39.5667 38.0156 38.4833 39.1822 37.55C40.3822 36.6167 41.9322 35.75 43.8322 34.95L49.3822 32.6C50.8156 32 51.8489 31.2833 52.4822 30.45C53.1489 29.6167 53.4822 28.5667 53.4822 27.3C53.4822 26.1333 53.0822 25.15 52.2822 24.35C51.5156 23.5167 50.3822 23.1 48.8822 23.1C47.3489 23.1 46.1989 23.5334 45.4322 24.4C44.6656 25.2333 44.2822 26.3667 44.2822 27.8H35.2822C35.2822 25.4 35.7989 23.2667 36.8322 21.4C37.8656 19.5334 39.3822 18.0667 41.3822 17C43.4156 15.9334 45.9156 15.4 48.8822 15.4C51.8156 15.4 54.2822 15.9167 56.2822 16.95C58.3156 17.95 59.8489 19.3334 60.8822 21.1C61.9489 22.8334 62.4822 24.8 62.4822 27V27.6C62.4822 30.4333 61.7156 32.7667 60.1822 34.6C58.6489 36.4333 56.1822 38.0833 52.7822 39.55L47.2322 41.9C46.4322 42.2333 45.8322 42.6 45.4322 43C45.0656 43.4 44.8822 43.9333 44.8822 44.6V46.4L42.7322 45H62.3822V53H35.7822Z" fill="#94a3b8"/>
</g>
<circle cx="26" cy="12" r="7" fill="#94a3b8"/>
<circle cx="41.5" cy="5.5" r="5.5" fill="#94a3b8"/>
<circle cx="55.5" cy="4.5" r="3.5" fill="#94a3b8"/>
<circle cx="66" cy="9" r="3" fill="#94a3b8"/>
<circle cx="74" cy="16" r="2" fill="#94a3b8"/>
<defs>
<clipPath id="clip0_10_29">
<rect width="240" height="40" fill="white" transform="translate(0 14)"/>
</clipPath>
</defs>
</svg>
