<svg xmlns="http://www.w3.org/2000/svg" fill="none" viewBox="0 0 188 173">
  <path fill="#41CF7B" d="M115.4 28c-2 3.2-4.4 6-6.5 7l-8.6 2a40.4 40.4 0 01-5.9-11C90.7 15.6 92 6.3 92.7 6.6c.6.4 4.8 5.5 6.9 12.6.6-9.1 3.5-18.5 4.4-19 1-.7 4 11.4 2.8 21.6 3-7.7 8.5-16 10.2-16 1.4 0-.4 8.3-3.1 15.9 3.3-3.9 6.9-6.7 7.1-5.8.3 1.1-2.3 7.2-5.6 12.3z"/>
  <path fill="#00B17B" d="M115.4 28c-2 3.2-4.4 6-6.5 7l-8.6 2a40.4 40.4 0 01-5.9-11l5.2.6h1l4.7.5h.5l4 .4 1.6.2 4 .4z"/>
  <path fill="#D5E3EC" d="M97 62.2A10.7 10.7 0 0188.6 51L90 29.3c.1-1.5 1.5-2.6 3-2.2l23 5.2c1.5.3 2.3 2 1.7 3.3l-8.3 20.2c-2 4.9-7.2 7.6-12.3 6.4z"/>
  <path fill="#F25453" d="M187.3 71.4l-44.2 58.5a2.8 2.8 0 01-3.9.6l-35.8-27.1a2.8 2.8 0 01-.5-3.9L147 41c1-1.3 2.6-1.5 3.9-.6l35.8 27c1.2 1 1.5 2.7.5 4z"/>
  <path fill="#121B42" d="M180.4 62.7l-47.6 63-8.5-6.5 47.5-63 8.6 6.5z"/>
  <path fill="#fff" d="M124.4 99a1 1 0 01-.2-1.4l4-5.3a1 1 0 011.7 1.3l-4 5.3a1 1 0 01-1.5.2zM132 89a1 1 0 01-.1-1.5l4-5.3a1 1 0 111.6 1.3l-4 5.3a1 1 0 01-1.4.2zM139.7 78.9a1 1 0 01-.2-1.5l4-5.3a1 1 0 111.7 1.3l-4 5.3a1 1 0 01-1.5.2zM147.3 68.8a1 1 0 01-.2-1.5l4-5.3a1 1 0 111.7 1.3l-4 5.3a1 1 0 01-1.5.2z"/>
  <path fill="#4869EE" d="M114.4 146.5L60.6 172c-3.9 1.8-8.6.1-10.4-3.8L.8 63.4c-1.9-4-.2-8.6 3.7-10.5l53.7-25.3c4-1.9 8.6-.2 10.5 3.7L118 136.1c1.8 3.9.2 8.6-3.7 10.4z"/>
  <path fill="#F6FAFB" d="M51.1 162.8L5.5 66c-.7-1.4-.1-3.1 1.3-3.8l57-27c1.5-.6 3.2 0 4 1.4l45.6 96.8c.7 1.5 0 3.2-1.4 3.9l-57 26.9c-1.5.7-3.2 0-3.9-1.4z"/>
  <path fill="#2731AA" d="M26.3 48a.9.9 0 11-1.7.7.9.9 0 011.7-.7zM41.9 41.2l-11.4 5.4a.6.6 0 11-.4-1l11.3-5.4a.6.6 0 11.5 1z"/>
  <path fill="#D5E3EC" d="M79 84l-44 21c-1 .3-2.1 0-2.6-1L18.6 74.8c-.4-1 0-2 1-2.5l44-20.8c1-.4 2 0 2.5.9l13.8 29.2c.4 1 0 2-.9 2.5z"/>
  <path fill="#F6FAFB" d="M64.7 61.8L26.8 79.7a1.2 1.2 0 11-1-2.1l37.9-17.9a1.2 1.2 0 111 2.1zM67.6 68L29.8 86a1.2 1.2 0 01-1-2.2L66.6 66a1.2 1.2 0 011 2.2zM70.6 74.3L32.6 92a1.2 1.2 0 01-.9-2l37.9-18a1.2 1.2 0 011 2.2z"/>
  <path fill="#D5E3EC" d="M98.3 125l-44.1 20.8c-1 .4-2 0-2.5-1L38 115.7c-.4-.9 0-2 .9-2.4l44.1-20.9c1-.4 2 0 2.5 1l13.8 29.2c.4.9 0 2-1 2.4z"/>
  <path fill="#F6FAFB" d="M83.8 102.3l-37.9 17.9a1.2 1.2 0 01-1-2.1l37.9-17.9a1.2 1.2 0 011 2.1zM86.7 108.5l-37.8 18a1.2 1.2 0 11-1-2.2l37.8-17.9a1.2 1.2 0 111 2.1zM89.7 114.8l-37.9 17.8a1.2 1.2 0 11-1-2l37.9-18a1.2 1.2 0 111 2.2z"/>
  <path fill="#41CF7B" d="M131 82.3a38.4 38.4 0 11-76.7 0 38.4 38.4 0 0176.8 0z"/>
  <path stroke="#fff" stroke-linecap="round" stroke-linejoin="round" stroke-miterlimit="10" stroke-width="6" d="M77.2 81.8L88 92.5 108.2 72"/>
</svg>
