<svg xmlns="http://www.w3.org/2000/svg" fill="none" viewBox="0 0 317 222">
  <path fill="#D5E3EC" d="M64.5 115.5H2.6A2.6 2.6 0 010 113V64.5c0-1.5 1.2-2.7 2.6-2.7h61.9c1.4 0 2.6 1.2 2.6 2.7v48.4c0 1.5-1.2 2.6-2.6 2.6z"/>
  <path fill="#F6FAFB" d="M62.8 111.2H4.3v-45h58.5v45z"/>
  <path fill="#D5E3EC" d="M62.8 93.7v17.5H4.3v-6.7l12.1-12.1a5.5 5.5 0 017.8 0l.5.4a5.5 5.5 0 007.7 0L43.3 82a5.5 5.5 0 017.8 0l11.7 11.7zM21.3 77.3a5 5 0 11-10 0 5 5 0 0110 0z"/>
  <path fill="#121B42" d="M316 60.2v65c0 3-2.4 5.4-5.4 5.4h-83.4c-3 0-5.5-2.4-5.5-5.5v-65c0-3 2.5-5.4 5.5-5.4h83.4c3 0 5.4 2.5 5.4 5.5z"/>
  <path fill="#4869EE" d="M316 60.2v5.2h-94.3v-5.2c0-3 2.5-5.5 5.5-5.5h83.4c3 0 5.4 2.5 5.4 5.5z"/>
  <path fill="#fff" d="M304.8 60a1 1 0 11-2 0 1 1 0 012 0zM297.5 60a1 1 0 11-2 0 1 1 0 012 0zM290.1 60a1 1 0 11-2 0 1 1 0 012 0z"/>
  <path fill="#374577" d="M304.1 80.4h-70.4a1.8 1.8 0 010-3.6H304a1.8 1.8 0 010 3.6zM304.1 92.7h-70.4a1.8 1.8 0 010-3.6H304a1.8 1.8 0 010 3.6zM286.3 105h-34.8a1.8 1.8 0 110-3.7h34.8a1.8 1.8 0 110 3.6z"/>
  <path fill="#F25453" d="M234.1 191.5V221h-133a2.8 2.8 0 01-2.8-2.8v-24c0-1.5 1.3-2.8 2.9-2.8H234z"/>
  <path fill="#C63939" d="M234.1 191.5V221h-69.7a2.8 2.8 0 01-2.9-2.8v-24c0-1.5 1.3-2.8 2.9-2.8H234z"/>
  <path fill="#F6FAFB" d="M234.1 196.1v20.4h-65.8a2 2 0 01-2-2v-16.3c0-1.2.8-2 2-2H234z"/>
  <path fill="#D5E3EC" d="M234.1 200.2h-67.9v-1.4h67.9v1.4zM234.1 204.7h-67.9v-1.3h67.9v1.3zM234.1 209.3h-67.9v-1.4h67.9v1.4zM234.1 213.8h-67.9v-1.4h67.9v1.4z"/>
  <path fill="#121B42" d="M183.2 211.2h-5v-6.5h5v6.5z"/>
  <path fill="#4869EE" d="M201 170.5v21h-94a2 2 0 01-2-2v-17c0-1 .8-2 2-2h94z"/>
  <path fill="#2A4EC4" d="M201 170.5v21h-49.3a2 2 0 01-2-2v-17c0-1 .8-2 2-2H201z"/>
  <path fill="#F6FAFB" d="M201 173.8v14.4h-46.6c-.8 0-1.5-.7-1.5-1.5v-11.4c0-.9.7-1.5 1.5-1.5H201z"/>
  <path fill="#D5E3EC" d="M201 176.7h-48v-1h48v1zM201 179.9h-48v-1h48v1zM201 183h-48v-.9h48v1zM201 186.3h-48v-1h48v1z"/>
  <path fill="#121B42" d="M165 184.5h-3.6v-4.6h3.6v4.6z"/>
  <path fill="#F6FAFB" d="M256 21.1v130c0 3-2.4 5.4-5.5 5.4H60.8c-3 0-5.5-2.4-5.5-5.5V21.1c0-3 2.5-5.4 5.5-5.4h189.7c3 0 5.5 2.4 5.5 5.4z"/>
  <path fill="#D5E3EC" d="M256 21.1v5.3H55.3V21c0-3 2.5-5.4 5.5-5.4h189.7c3 0 5.5 2.4 5.5 5.4z"/>
  <path fill="#F25453" d="M244.8 21a1 1 0 11-2 0 1 1 0 012 0z"/>
  <path fill="#FFB32A" d="M237.4 21a1 1 0 11-2 0 1 1 0 012 0z"/>
  <path fill="#41CF7B" d="M230 21a1 1 0 11-2 0 1 1 0 012 0z"/>
  <path stroke="#9CC3D8" stroke-linecap="round" stroke-linejoin="round" stroke-miterlimit="10" stroke-width="3.5" d="M74.5 48.2L85 56.5l-10.5 8.3M95 56.5h81.6M95 70.9h81.6M95 85.3h30.8M95 99.7h20.8"/>
  <path fill="#121B42" d="M240.3 208h-14.6l-15-70.3-.7 12.5-3.1 57.9h-14.4l-3.2-97.6 39.7-2 11.3 99.6z"/>
  <path fill="#4869EE" d="M215.9 58.2s11.4-.8 17.8 4.1c6.4 5-.2 17.8-5.2 25.1-1.1 5-.2 13.3.5 18.8l.8 5.4c0 1.7-40.3 2-40.6.6-.1-.4.1-2.4.5-5.2l2.4-16.5c.5-3.7.8-6.9.8-8.5 0-5.7-6.4-4.3-6.4-4.3s2.8-11.4 6.5-15c3.8-3.7 16-4.2 16-4.2"/>
  <path fill="#3251B7" d="M195 81.1s2.3-13.6 2-13.9c-.3-.2-5.6 8.7-5.6 8.7M229 106.2a43 43 0 01-7.3 1.8c-6.8 1-21.2 0-32-1l2.4-16.5 14.8.2c6.8-.1 9.3-6.6 12.8-13.1s7-8.9 7.3-8.6c.3.2-7.3 12.5-7.3 12.5l2.7 6.7 6-.8c-1 5-.1 13.3.6 18.8z"/>
  <path fill="#121B42" d="M202.6 42.3c-5 1.4-5.3-.8-4.7-2.3.7-1.4 2.3-2.1 2.3-2.1s-2.9 1-3.2-1.4c-.3-2.3 3.5-5 10-5.5 6.6-.4 16.8 2.5 13 8.1 2.2 2.5 2.3 3.3.3 7.9-2 4.5-6.5 7.7-8.3 5.5"/>
  <path fill="#FFC7B6" d="M215.9 58.2c0 .8-.2 1.6-.7 2.2-.7.8-2 1.9-4.3 2.2-3.7.5-3.7-3.8-3.7-3.8l-.7-5.3 8.7-3.9a47.3 47.3 0 00.7 8.6z"/>
  <path fill="#E57A92" d="M215.2 49.6c0 2.3.2 5 .4 7a13 13 0 01-8.7 0l-.4-3.1 8.7-3.9z"/>
  <path fill="#FFC7B6" d="M201.4 37.6c10 5.4 13.4 2.8 13.4 2.8s-.2 6 1 7.3l1-4.2s4 .1 3.6 3c-.6 3-3.9 2-3.9 2s-2 7.4-8.7 7c-6.7-.3-7.5-6.4-6.4-17.9z"/>
  <path stroke="#E57A92" stroke-linecap="round" stroke-linejoin="round" stroke-miterlimit="10" stroke-width=".3" d="M218.3 47.4c-1.2 0-.7-2.6.8-1.7M207 45.3l-1.1 3c-.2.5.1 1 .7 1l.8.2"/>
  <path fill="#121B42" d="M211 46a.6.6 0 11-1.2.2.6.6 0 011.3-.1zM204 46a.6.6 0 11-1.3.2.6.6 0 011.3-.2z"/>
  <path stroke="#121B42" stroke-linecap="round" stroke-linejoin="round" stroke-miterlimit="10" stroke-width=".6" d="M209.8 43s1.4-.9 2.8.3M202.8 43.3s1.3-1.2 2.8-.2"/>
  <path stroke="#fff" stroke-miterlimit="10" stroke-width=".3" d="M213.4 46.6a2.7 2.7 0 11-5.4 0 2.7 2.7 0 015.4 0zM206 46.6a2.7 2.7 0 11-5.5 0 2.7 2.7 0 015.5 0zM205.8 46.1h2.2M213.4 46.1h2.7"/>
  <path stroke="#E57A92" stroke-linecap="round" stroke-linejoin="round" stroke-miterlimit="10" stroke-width=".6" d="M208 52s1.4.6 2.8-.5"/>
  <path fill="#FF922A" d="M203.3 97.5l-52.7-6.7a1 1 0 01-.9-1.2l3-23.9c.1-.6.7-1 1.3-1l52.6 6.8c.6 0 1 .6 1 1.2l-3 23.9c-.1.6-.7 1-1.3 1z"/>
  <path fill="#FFB32A" d="M208.4 98.2L164 92.5a1 1 0 01-1-1.1l3.2-24c0-.6.5-1 1-1l44.5 5.7c.6.1 1 .6.9 1.2l-3 24c-.2.5-.7 1-1.2.9z"/>
  <path fill="#fff" d="M179.7 78.3l-.9 7-.7-.1.4-3.2-4.3-.6-.5 3.2h-.7l.9-7h.7l-.4 3.2 4.4.5.4-3h.7zm3.5 1.1l-2.4-.3v-.6l5.7.7v.6l-2.5-.3-.8 6.3h-.8l.8-6.4zm11.7.9l-1 6.9h-.6l.7-5.6-3.3 4.3h-.4l-2.1-5-.7 5.5-.7-.1.9-7 .6.1 2.3 5.5 3.7-4.7h.6zm2.2.2l.8.1-.8 6.3 3.9.5-.1.7-4.6-.6.8-7z"/>
  <path fill="#FFC7B6" d="M219.7 81.5l-6.3 11.2s-18 .4-19.2.2c-1.1-.2-4.5-4.4-5.5-3.9-1 .6 1.4 4.3 1.4 4.3s-7.6.6-9.9.6c-2.2 0 1.4 6.5 6 6.7 4.7.3 7.2-1.3 8.2-1.3 1 0 18.4 4.4 23 2.5 4.7-2 11-14.4 11-14.4l-8.7-6zM151 77s6.5.7 6.2 1.8c-.2 1-4.2.7-4.2.7s5.2-.2 4.3 1.2c-1 1.5-2 6.4-6.7 5.2-3.9-1-1.5-8.6.3-8.9z"/>
  <path fill="#09112D" d="M210.7 137.7l-.7 12.5-7.8-13.7 8.5 1.2z"/>
  <path fill="#4869EE" d="M192.5 208l-17.1 12a.6.6 0 00.3 1.1h31.7c.4 0 .6-.3.6-.6l-1.1-12.4h-14.4zM225.8 208l-6.3 11.4c-.4.8.2 1.7 1 1.7h19.6c.7 0 1.2-.6 1.2-1.3l-1-11.7h-14.5z"/>
  <path fill="#121B42" d="M42.2 139.5a5.7 5.7 0 1111-2.5 5.7 5.7 0 01-11 2.5zm4.6 17.2l6.3-.8-.7-5.2c1.3-.5 2.5-1.2 3.6-2l4 3.2 4-5-4.1-3.2c.5-1.2.9-2.5 1-4l5.2-.6-.7-6.3-5.2.7c-.5-1.3-1.2-2.5-2-3.5l3.2-4.2-5-3.9L53 126c-1.2-.5-2.5-.9-3.9-1l-.6-5.2-6.3.8.6 5.2c-1.3.4-2.4 1.1-3.5 2l-4.1-3.3-4 5 4.2 3.3c-.5 1.2-1 2.5-1 3.9l-5.3.6.8 6.3 5.2-.6c.5 1.3 1.2 2.4 2 3.5l-3.2 4.1 5 4 3.2-4.2c1.2.6 2.6 1 4 1l.6 5.3z"/>
  <path fill="#121B42" d="M70 126.3a3.3 3.3 0 115.4-4 3.3 3.3 0 01-5.5 4zm6.4 8.3l3.3-1.9L78 130c.6-.5 1.1-1.2 1.5-1.8l3 .8 1-3.7-3-.8-.3-2.4 2.7-1.5-1.9-3.3-2.7 1.6c-.6-.6-1.2-1.1-1.9-1.5l.8-3-3.6-1-.8 3c-.8 0-1.6 0-2.4.3L69 114l-3.3 1.9 1.5 2.7c-.6.5-1 1.2-1.4 1.9l-3-.8-1 3.6 3 .8c0 .8 0 1.6.3 2.4l-2.7 1.5 1.8 3.3 2.7-1.5c.6.5 1.2 1 2 1.4l-.9 3 3.6 1 .9-3c.8 0 1.6 0 2.3-.3l1.6 2.7z"/>
  <path fill="#41CF7B" d="M88.4 195.6a30 30 0 01-7.2 12.5l-15-4.2c-1.1-1.4-2-3.1-2.9-4.9-4.3-9.5-4.9-22.5-3.7-22 .8.2 4.9 5 8 11.3-1-13.2 1-28.4 2.7-30.6 1.8-2.2 5.9 14 6.6 28.8 1.7-6.5 4.2-12.3 5.7-13.1 1.8-1 1.8 11.2.1 21.4 3-5.8 7-9.4 7.6-8.3.4.8-.4 4.7-2 9.1z"/>
  <path fill="#00B17B" d="M88.4 195.6a30 30 0 01-7.2 12.5l-15-4.2c-1.1-1.4-2-3.1-2.9-4.9l6-.8 1.7-.2 4-.6 1.7-.2 5.2-.7h.6l5.9-.9z"/>
  <path fill="#D5E3EC" d="M61.2 201.3h27c2 0 3.3 1.7 2.8 3.5l-2.2 7.8c-1.4 5-6 8.5-11.3 8.5H72c-5.3 0-9.9-3.5-11.3-8.5l-2.2-7.8c-.5-1.8.9-3.5 2.7-3.5z"/>
  <path fill="#6B9BBF" d="M162.2 154.2v16.5h10l-4-19.8"/>
  <path fill="#9CC3D8" d="M200 131.2c-2 1.5-7.9-6.7-16.1-6.2 1.8 10-.5 20.8-3.3 24.3l1.4 20c0 .8-.6 1.4-1.3 1.4h-11.8c-.7 0-1.2-.5-1.3-1.1l-1.9-14.2s-13 4.2-24 1l.8 13.1c0 .7-.4 1.2-1 1.2h-16.6c-.7 0-1.2-.6-1.2-1.2a126.5 126.5 0 00.3-12c-.3-2-1.7-7.2-2.6-10.3l-.7-2.5c-1.8 2.7-7.7 2.5-7.7 2.5a30.3 30.3 0 00-4 21.5c-.6 1.6-6.9 2.6-7.6 1.6l-.7-2.2a65.4 65.4 0 01.7-32.4c5.1-17.6 14.3-23.3 23.7-19.4 5.8-9 20-9.3 20.4-2.4.4-.4 1-.7 1.5-1 8.7-5.2 28.7-2.4 34.8 8.7 11.5-1 20.2 8 18.2 9.6z"/>
  <path fill="#C4DBE8" d="M109 168.7c-.6 1.6-6.9 2.6-7.6 1.6l-.7-2.2c4-.4 6.6-1.4 7.8-2l.5 2.6z"/>
  <path fill="#6B9BBF" d="M143.1 128.8c-2.8 5.1-7 2.9-4.5 1.8 2.4-1.1 7.2-7.5 6.9-16.7.4-.4 1-.7 1.5-1 1 6.3-1.2 11-3.9 16zM130.8 170.7h-6c-.6 0-1.1-.6-1-1.2.1-2.3.4-7.5.4-10.5l6-4 .6 15.7zM125.2 135.4c1.2 4.7-1.1 9.5-3.8 11.8a484 484 0 00-.7-2.5c4-3.8 3.2-7.7 2.3-9.8 0-.3.1-.7.5-.8a4 4 0 003-3.4c.1-.3.4-.5.8-.5s.7.3.6.7c0 1.2-.4 3.7-2.7 4.5z"/>
  <path fill="#F6FAFB" d="M129.3 145.1a.4.4 0 01-.4-.4l3.5-18c0-.3.2-.4.4-.4h7.6c2.3 0 4.1.7 5.2 2 1.1 1.2 1.5 3 1 5.2a8.5 8.5 0 01-2.5 4.7c-.9.7-1.8 1.3-2.8 1.6-1 .3-2.3.5-3.8.5h-3l-1 4.5c0 .2-.1.3-.3.3h-4zm7.8-8.4c1.5 0 2.6-.3 3.3-.8.7-.5 1.2-1.5 1.5-2.8.2-1.2.1-2-.3-2.5s-1.3-.7-2.7-.7h-2.4l-1.3 6.8h1.9zM156.3 140.3a.4.4 0 01-.3-.4l1.5-8c.2-.8.1-1.3 0-1.6-.2-.1-.6-.3-1.8-.3H153l-2 10c0 .2-.1.3-.3.3h-3.9l-.3-.1v-.3l3.5-18c0-.3.1-.4.3-.4h4a.4.4 0 01.3.5l-.9 4.3h3c2.4 0 4 .4 4.8 1.3 1 .8 1.3 2.2.9 4l-1.6 8.4c0 .2-.2.3-.4.3h-4zM161.2 145.1l-.3-.1v-.3l3.4-18c0-.3.2-.4.4-.4h7.5c2.4 0 4.2.7 5.3 2 1.1 1.2 1.5 3 1 5.2a8.5 8.5 0 01-2.6 4.7c-.8.7-1.7 1.3-2.7 1.6-1 .3-2.3.5-3.8.5h-3l-1 4.5c0 .2-.1.3-.3.3h-4zm7.8-8.4c1.5 0 2.6-.3 3.3-.8.7-.5 1.2-1.5 1.4-2.8.3-1.2.2-2-.2-2.5-.5-.5-1.4-.7-2.7-.7h-2.4l-1.4 6.8h2zM118.5 128a2.6 2.6 0 11-5.2 0 2.6 2.6 0 015.2 0z"/>
  <path fill="#121B42" d="M118.2 127.9a1.7 1.7 0 11-3.3 0 1.7 1.7 0 013.3 0z"/>
  <path fill="#C4DBE8" d="M133.4 167.8v2.9h-2.6v-3a1.3 1.3 0 012.6 0zM136.3 167.8v2.9h-2.6v-3a1.3 1.3 0 112.6 0zM139.2 167.8v2.9h-2.6v-3a1.3 1.3 0 112.6 0zM171.2 167.8v2.9h-2.6v-3a1.3 1.3 0 012.6 0zM174.2 167.8v2.9h-2.7v-3a1.3 1.3 0 112.7 0zM177 167.8v2.9h-2.5v-3a1.3 1.3 0 112.6 0z"/>
  <path stroke="#121B42" stroke-linecap="round" stroke-linejoin="round" stroke-miterlimit="10" d="M112.5 123.7s1-1.8 4-1.3"/>
  <path fill="#41CF7B" d="M178.4 42h-42a4 4 0 01-4-4V4a4 4 0 014-4h42a4 4 0 014 4v34a4 4 0 01-4 4z"/>
  <path fill="#fff" d="M146.8 31.3a1.8 1.8 0 01-1.1-3.2l9-7-9-7.2a1.8 1.8 0 012.2-2.8l10.8 8.5a1.8 1.8 0 010 2.8L147.9 31c-.3.3-.7.4-1 .4zM171.4 31.3h-9.6a1.8 1.8 0 010-3.6h9.6a1.8 1.8 0 110 3.6z"/>
</svg>
