<svg width="473" height="367" viewBox="0 0 473 367" fill="none" xmlns="http://www.w3.org/2000/svg">
    <path d="M438.32 356.56C454.01 356.56 466.73 354.16 466.73 351.2C466.73 348.24 454.01 345.84 438.32 345.84C422.63 345.84 409.91 348.24 409.91 351.2C409.91 354.16 422.63 356.56 438.32 356.56Z" fill="#9FB3C8"/>
    <path d="M457.99 12.97V321.6C457.99 328.25 453.18 333.42 447.11 333.42H37.37C31.52 333.42 26.49 328.25 26.49 321.36V12.96C26.49 6.32999 31.51 1.14999 37.37 1.14999H447.11C452.97 1.14999 457.99 6.32999 457.99 12.97Z" fill="#F6FAFB" stroke="#D5E3EC" stroke-width="2"/>
    <path d="M459 11.94V23H25.48V11.73C25.48 5.47 30.88 0.470001 37.36 0.470001H447.12C453.6 0.470001 459 5.47 459 11.73V11.94Z" fill="#D5E3EC"/>
    <path d="M434.8 11.73C434.8 12.29 434.58 12.82 434.18 13.21C433.77 13.6071 433.221 13.8291 432.65 13.8291C432.079 13.8291 431.53 13.6071 431.12 13.21C430.922 13.0188 430.764 12.7897 430.657 12.5362C430.549 12.2828 430.494 12.0103 430.494 11.735C430.494 11.4597 430.549 11.1872 430.657 10.9338C430.764 10.6803 430.922 10.4512 431.12 10.26C431.53 9.86288 432.079 9.64085 432.65 9.64085C433.221 9.64085 433.77 9.86288 434.18 10.26C434.58 10.65 434.81 11.18 434.81 11.73H434.8Z" fill="#F25453"/>
    <path d="M418.82 11.73C418.82 12.29 418.6 12.82 418.19 13.21C417.78 13.6042 417.234 13.8243 416.665 13.8243C416.096 13.8243 415.55 13.6042 415.14 13.21C414.942 13.0188 414.784 12.7896 414.677 12.5362C414.569 12.2828 414.514 12.0103 414.514 11.735C414.514 11.4597 414.569 11.1872 414.677 10.9338C414.784 10.6803 414.942 10.4512 415.14 10.26C415.55 9.86584 416.096 9.64568 416.665 9.64568C417.234 9.64568 417.78 9.86584 418.19 10.26C418.59 10.65 418.82 11.18 418.82 11.73V11.73Z" fill="#FFB32A"/>
    <path d="M402.84 11.73C402.84 12.29 402.61 12.82 402.21 13.21C401.8 13.6071 401.251 13.8291 400.68 13.8291C400.109 13.8291 399.56 13.6071 399.15 13.21C398.952 13.0188 398.794 12.7897 398.687 12.5362C398.579 12.2828 398.524 12.0103 398.524 11.735C398.524 11.4597 398.579 11.1872 398.687 10.9338C398.794 10.6803 398.952 10.4512 399.15 10.26C399.56 9.86288 400.109 9.64085 400.68 9.64085C401.251 9.64085 401.8 9.86288 402.21 10.26C402.61 10.65 402.84 11.18 402.84 11.73V11.73Z" fill="#41CF7B"/>
    <path d="M159.56 38.25H52.1599C46.6371 38.25 42.1599 42.7272 42.1599 48.25V155.66C42.1599 161.183 46.6371 165.66 52.1599 165.66H159.56C165.083 165.66 169.56 161.183 169.56 155.66V48.25C169.56 42.7272 165.083 38.25 159.56 38.25Z" fill="#D5E3EC"/>
    <path d="M129.9 165.66H54.07C53.21 165.66 52.3699 165.56 51.5499 165.39C36.2799 148.93 45.31 135.49 54.71 121.49C60.22 113.3 65.86 104.91 66.82 95.6C69.44 70.47 94.8499 58.43 115.55 73.35C119.22 73.35 124.98 78.85 128.12 92.2C129 95.55 130.74 98.94 132.68 102.68C138.29 113.56 145.48 127.48 137.29 152.41C135.676 157.248 133.174 161.741 129.91 165.66H129.9Z" fill="#121B42"/>
    <path d="M147.49 165.66H54.07C50.69 165.66 47.64 164.26 45.47 162C50.03 152.7 55.87 142.78 61.7 138.26C74.17 128.63 105.08 130.45 105.08 130.45C114.482 128.945 123.438 125.387 131.31 120.03C137.55 115.6 154.69 94.76 156.77 89.03C157.52 86.94 159.48 79.83 161.76 71.56C164.14 62.91 166.86 53 168.92 46.3C169.34 47.5 169.56 48.8 169.56 50.16V109.86C165.64 116.1 160.35 124.08 155.5 131.39C148.68 141.66 142.74 150.61 142.74 151.55C142.74 152.22 143.26 153.07 143.94 154.2C145.34 156.5 147.47 160 147.49 165.66V165.66Z" fill="#EC4E4F"/>
    <path d="M108.83 134.3C108.83 134.3 109.34 140.55 102.39 142.63C95.4401 144.98 89.5201 136.38 88.7501 135.08C88.2301 134.03 89.2601 127.26 88.7501 119.45V116.84H108.83V134.3V134.3Z" fill="#FFC7B6"/>
    <path d="M108.84 116.84V132.32C100.43 130.8 92.2801 125.22 88.6001 119.63V116.84H108.84Z" fill="#E57A92"/>
    <path d="M116.15 79.93C112.55 90.45 86.3199 97.03 86.3199 97.03C86.3199 97.03 87.0899 105.18 86.0599 108.33C84.2599 105.7 81.6899 98.86 81.6899 98.86C81.6899 98.86 73.9699 100.7 75.7699 106.76C77.3099 113.06 83.7399 110.44 83.7399 110.44C83.7399 110.44 89.9199 127.53 107.92 124.9C125.92 122.27 118.2 97.29 116.15 79.93V79.93Z" fill="#FFC7B6"/>
    <path d="M106.18 101.36L109.58 106.66C110.38 107.71 110.11 109.3 108.8 109.83L107.23 110.89L106.18 101.36ZM77.8799 105.07C79.7199 102.95 82.5999 106.65 79.9799 108.51L77.8799 105.07Z" stroke="#E57A92" stroke-width="0.3" stroke-miterlimit="10" stroke-linecap="round" stroke-linejoin="round"/>
    <path d="M99.8201 114.46H107.14L107.64 114.93C107.394 115.863 106.832 116.683 106.05 117.248C105.268 117.813 104.313 118.09 103.35 118.03C102.424 118.05 101.52 117.753 100.785 117.19C100.051 116.626 99.5305 115.829 99.3101 114.93C99.3101 114.93 99.3101 114.46 99.8101 114.46H99.8201Z" fill="white"/>
    <path d="M114.55 100.58C114.737 100.887 114.818 101.246 114.782 101.604C114.746 101.961 114.594 102.297 114.35 102.56C114.194 102.726 114.002 102.855 113.789 102.936C113.576 103.018 113.347 103.05 113.12 103.03C112.89 103.01 112.67 102.93 112.47 102.81C112.274 102.68 112.108 102.509 111.984 102.308C111.859 102.108 111.78 101.884 111.75 101.65C111.78 101.35 111.88 101.06 112.05 100.82C112.168 100.639 112.326 100.486 112.51 100.373C112.695 100.259 112.903 100.189 113.118 100.166C113.333 100.143 113.551 100.168 113.756 100.24C113.96 100.311 114.146 100.428 114.3 100.58H114.55V100.58ZM98.54 104.84C98.7404 105.16 98.8249 105.539 98.7794 105.914C98.7339 106.289 98.5612 106.637 98.29 106.9C98.1151 107.065 97.9029 107.186 97.6714 107.252C97.4399 107.319 97.1959 107.328 96.96 107.28C96.7205 107.228 96.4973 107.118 96.31 106.96C96.1186 106.8 95.9674 106.597 95.8684 106.368C95.7694 106.138 95.7255 105.889 95.74 105.64C95.8 105.36 95.94 105.11 96.12 104.9C96.2527 104.744 96.4166 104.618 96.6013 104.529C96.7859 104.441 96.987 104.392 97.1917 104.387C97.3963 104.381 97.5998 104.418 97.7891 104.497C97.9783 104.575 98.149 104.692 98.29 104.84H98.54V104.84Z" fill="#121B42"/>
    <path d="M98.1999 98.7C98.1999 98.7 94.4299 97.04 92.1699 101.36M108.5 96.04C108.5 96.04 111.02 92.72 114.8 95.04L108.5 96.04Z" stroke="#121B42" stroke-width="0.5" stroke-miterlimit="10" stroke-linecap="round" stroke-linejoin="round"/>
    <path d="M77.8 165.66C78.18 161.41 77.85 161.29 77.63 160.69C77.48 160.29 75.16 162.99 73 165.66H77.8V165.66Z" fill="#C23D53"/>
    <path d="M152.63 223.6L74.31 232.34V224.12L150.32 215.9L152.89 223.6H152.64H152.63ZM149.3 212.3L74.5701 220.53V212.56L146.99 204.6L149.29 212.3H149.3ZM146.2 201L74.3 208.71V201.01L144.92 193.05C145.12 195.65 145.55 198.23 146.2 200.75V201.01V201Z" fill="#FF6666"/>
    <path d="M313.16 38.25H205.76C200.237 38.25 195.76 42.7272 195.76 48.25V155.66C195.76 161.183 200.237 165.66 205.76 165.66H313.16C318.683 165.66 323.16 161.183 323.16 155.66V48.25C323.16 42.7272 318.683 38.25 313.16 38.25Z" fill="#D5E3EC"/>
    <path d="M323.15 135.38V153.75C323.151 155.314 322.844 156.862 322.247 158.307C321.65 159.752 320.773 161.065 319.668 162.171C318.563 163.277 317.251 164.155 315.806 164.753C314.362 165.352 312.814 165.66 311.25 165.66H207.66C206.48 165.66 205.33 165.49 204.26 165.16C206.99 156.06 212.29 140.82 218.64 134.66C228.22 125.36 258.98 124.1 258.98 124.1L276.38 123.35C276.38 123.35 305.12 121.34 321.25 133.65C321.95 134.19 322.58 134.77 323.15 135.38Z" fill="#4869EE"/>
    <path d="M226.18 165.66H215.91C219.28 160.06 228.11 145.56 228.73 145.96C229.13 146.36 227.64 156.44 226.18 165.66ZM295.87 165.66H289.75C297.15 154.16 303.71 149.84 304.36 150.48C304.73 150.73 300.41 158.11 295.87 165.66Z" fill="#3251B7"/>
    <path d="M242.84 83.4C230.24 86.92 229.48 81.4 231 77.62C232.76 74.11 236.8 72.35 236.8 72.35C236.8 72.35 229.48 74.86 228.73 68.83C227.97 63.05 237.55 56.27 253.93 55.01C270.58 54.01 296.29 61.3 286.71 75.36C292.26 81.64 292.51 83.66 287.47 95.21C282.43 106.51 271.08 114.56 266.54 109.03" fill="#F7EEA5"/>
    <path d="M276.38 123.35C276.38 125.36 275.88 127.37 274.61 128.88C272.85 130.88 269.57 133.65 263.77 134.4C254.44 135.66 254.44 124.86 254.44 124.86L252.68 111.54L274.61 101.74C274.54 108.99 275.13 116.22 276.37 123.35H276.38Z" fill="#FFC7B6"/>
    <path d="M274.61 101.74C274.61 107.52 275.11 114.31 275.61 119.33C268.515 121.84 260.774 121.84 253.68 119.33L252.68 111.54L274.61 101.74Z" fill="#E57A92"/>
    <path d="M239.82 71.6C265.03 85.16 273.6 78.63 273.6 78.63C273.6 78.63 273.1 93.7 276.12 96.97L278.64 86.42C278.64 86.42 288.73 86.67 287.72 93.96C286.21 101.49 277.89 98.98 277.89 98.98C277.89 98.98 272.85 117.58 255.95 116.57C239.06 115.81 237.05 100.49 239.82 71.6V71.6Z" fill="#FFC7B6"/>
    <path d="M253.94 90.94L251.16 98.48C250.66 99.73 251.41 100.99 252.93 100.99L254.94 101.49L253.94 90.94ZM282.42 96.22C279.4 96.22 280.66 89.69 284.44 91.95L282.42 96.22Z" stroke="#E57A92" stroke-width="0.3" stroke-miterlimit="10" stroke-linecap="round" stroke-linejoin="round"/>
    <path d="M264.02 92.7C264.086 93.1005 263.991 93.5109 263.755 93.8409C263.518 94.171 263.16 94.3937 262.76 94.46C262.36 94.5263 261.949 94.4308 261.619 94.1945C261.289 93.9582 261.066 93.6005 261 93.2C260.982 92.9858 261.007 92.7702 261.073 92.5656C261.139 92.361 261.244 92.1715 261.384 92.0079C261.523 91.8444 261.694 91.71 261.885 91.6125C262.077 91.515 262.286 91.4564 262.5 91.44C262.935 91.4068 263.365 91.547 263.696 91.8299C264.028 92.1129 264.234 92.5155 264.27 92.95L264.02 92.7ZM246.37 92.7C246.436 93.1323 246.328 93.5731 246.069 93.9256C245.81 94.2781 245.422 94.5135 244.99 94.58C244.775 94.6142 244.555 94.6056 244.343 94.5548C244.13 94.5039 243.931 94.4118 243.754 94.2837C243.578 94.1555 243.428 93.9938 243.314 93.8079C243.2 93.622 243.124 93.4154 243.09 93.2C243.056 92.9843 243.066 92.764 243.118 92.5521C243.17 92.3401 243.264 92.1407 243.395 91.9656C243.525 91.7905 243.689 91.6432 243.877 91.5324C244.065 91.4215 244.274 91.3493 244.49 91.32C244.922 91.2539 245.363 91.3622 245.716 91.6209C246.068 91.8797 246.303 92.2678 246.37 92.7V92.7Z" fill="#121B42"/>
    <path d="M243.35 85.92C243.35 85.92 246.62 82.9 250.41 85.42M261 85.16C261 85.16 264.52 82.9 268.05 85.92L261 85.16Z" stroke="#121B42" stroke-width="0.6" stroke-miterlimit="10" stroke-linecap="round" stroke-linejoin="round"/>
    <path d="M270.07 92.95H276.88H270.07ZM270.08 94.21C270.081 95.1033 269.906 95.9879 269.564 96.8131C269.222 97.6382 268.72 98.3875 268.087 99.0178C267.454 99.648 266.702 100.147 265.875 100.485C265.049 100.824 264.163 100.995 263.27 100.99C261.47 100.987 259.744 100.273 258.468 99.0031C257.192 97.733 256.471 96.0101 256.46 94.21C256.457 93.3167 256.632 92.4318 256.972 91.6061C257.313 90.7805 257.814 90.0305 258.446 89.3993C259.079 88.7681 259.829 88.2683 260.655 87.9286C261.482 87.5889 262.367 87.416 263.26 87.42C265.062 87.4226 266.79 88.1382 268.065 89.4104C269.341 90.6827 270.062 92.4081 270.07 94.21V94.21H270.08ZM251.42 94.21C251.42 95.1195 251.24 96.02 250.891 96.8598C250.542 97.6995 250.03 98.462 249.385 99.1032C248.74 99.7445 247.975 100.252 247.133 100.596C246.291 100.941 245.39 101.115 244.48 101.11C242.649 101.105 240.894 100.377 239.596 99.0851C238.299 97.793 237.563 96.0411 237.55 94.21C237.549 93.3005 237.727 92.3997 238.075 91.5595C238.423 90.7192 238.934 89.956 239.578 89.3138C240.222 88.6717 240.987 88.1631 241.828 87.8175C242.669 87.4719 243.571 87.296 244.48 87.3C246.314 87.3 248.073 88.0256 249.373 89.3185C250.674 90.6114 251.41 92.3663 251.42 94.2V94.21ZM250.92 92.95H256.46H250.91H250.92Z" stroke="white" stroke-width="0.3" stroke-miterlimit="10"/>
    <path d="M256.46 107.77C256.46 107.77 259.99 109.28 263.52 106.52" stroke="#E57A92" stroke-width="0.6" stroke-miterlimit="10" stroke-linecap="round" stroke-linejoin="round"/>
    <path d="M313.16 191.86H205.76C200.237 191.86 195.76 196.337 195.76 201.86V309.27C195.76 314.793 200.237 319.27 205.76 319.27H313.16C318.683 319.27 323.16 314.793 323.16 309.27V201.86C323.16 196.337 318.683 191.86 313.16 191.86Z" fill="#D5E3EC"/>
    <path d="M211.12 258.5L228.55 238.55C222.51 233.21 217.39 228.34 216.93 226.02C216.06 222.83 215 204.88 214.33 191.86H207.66C204.51 191.86 201.64 193.08 199.5 195.09C197.87 209.66 195.76 229.59 195.76 234.94C195.76 235.27 195.76 235.54 195.78 235.76C199.848 243.992 205.008 251.638 211.12 258.49V258.5ZM323.15 205.11L311.05 232.75C310.82 233.45 301.29 238.78 291.3 244.35L307.1 265.68C312.548 260.368 317.899 254.957 323.15 249.45V205.11V205.11Z" fill="#A76D5B"/>
    <path d="M286.26 319.26H210.37C214.67 304.55 219.06 289.86 223.54 275.2C223.9 274.85 220.08 270.07 215.19 263.96L210.65 258.26L228.23 238.29C237.83 246.42 250.26 255.01 253.54 255.47L267.14 257.1L291.27 244.1L307.21 265.69H307.68L292.21 281.24C289.689 293.823 287.704 306.508 286.26 319.26V319.26Z" fill="#2EA15E"/>
    <path d="M243.95 219.14C235.61 213.74 233.99 203.64 239.32 201.53C244.64 199.42 250.44 203.88 250.44 203.88C250.44 203.88 244.88 200.12 248.35 195.43C251.83 190.73 259.47 201.3 265.04 203.64C270.83 205.99 277.78 205.99 280.1 210.22C282.41 214.21 279.17 221.02 279.17 221.02C279.17 221.02 283.8 220.32 282.41 226.65C281.25 233.22 276.85 244.25 271.99 245.2C267.35 246.14 263.88 244.02 263.88 244.02" fill="#121B42"/>
    <path d="M268.37 258.18C268.378 258.962 268.21 259.736 267.877 260.444C267.545 261.153 267.057 261.777 266.45 262.27C263.678 264.55 260.178 265.757 256.59 265.67C248.41 265.67 249.37 257.04 249.37 257.04V246.13L269.57 240.68C268.608 246.461 268.206 252.322 268.37 258.18Z" fill="#A76D5B"/>
    <path d="M269.6 240.76C268.68 245.49 268.42 251.12 268.35 255.34C261.23 257.47 253.25 254.63 249.35 252.74L249.43 245.94L269.6 240.76V240.76Z" fill="#874D3C"/>
    <path d="M243.45 212.1C248.77 223.64 269.61 226.87 269.61 226.87C269.61 226.87 268.21 233.79 270.07 237.02L273.54 228.72C273.54 228.72 281.87 229.87 280.02 235.87C278.17 241.87 271.69 238.64 271.69 238.64C271.69 238.64 265.44 253.64 251.55 251.1C237.89 248.56 237.66 235.87 243.22 212.56L243.45 212.1V212.1Z" fill="#A76D5B"/>
    <path d="M253.96 229.96L250.8 235.44C250.12 236.32 250.8 237.64 251.7 237.64L253.51 238.29L253.96 229.96ZM276.11 236.76C273.61 236.54 275.42 231.49 277.91 233.69L276.11 236.76Z" stroke="#874D3C" stroke-width="0.3" stroke-miterlimit="10" stroke-linecap="round" stroke-linejoin="round"/>
    <path d="M262.43 232.31C262.43 232.64 262.29 232.95 262.04 233.17C261.784 233.403 261.451 233.531 261.105 233.531C260.759 233.531 260.426 233.403 260.17 233.17C260.049 233.062 259.952 232.929 259.884 232.781C259.817 232.633 259.782 232.473 259.78 232.31C259.78 231.99 259.92 231.68 260.17 231.45C260.42 231.22 260.76 231.1 261.11 231.1C261.46 231.1 261.8 231.22 262.04 231.45C262.29 231.68 262.44 231.99 262.44 232.31H262.43ZM248.3 230.69C248.389 230.873 248.427 231.076 248.41 231.279C248.392 231.481 248.32 231.675 248.2 231.84C248.07 232.01 247.91 232.15 247.72 232.24C247.524 232.337 247.309 232.387 247.09 232.387C246.871 232.387 246.656 232.337 246.46 232.24C246.27 232.148 246.105 232.01 245.98 231.84C245.862 231.675 245.79 231.481 245.772 231.279C245.754 231.076 245.792 230.873 245.88 230.69C245.98 230.47 246.15 230.29 246.36 230.16C246.579 230.028 246.829 229.958 247.085 229.958C247.341 229.958 247.591 230.028 247.81 230.16C248.03 230.29 248.2 230.47 248.31 230.69H248.3Z" fill="#121B42"/>
    <path d="M245.76 224.81C245.76 224.81 248.76 222.71 251.51 225.28M260.25 227.37C260.25 227.37 263.47 225.74 266 228.77L260.25 227.37Z" stroke="#121B42" stroke-width="0.5" stroke-miterlimit="10" stroke-linecap="round" stroke-linejoin="round"/>
    <path d="M252.23 241.87H259.93C259.93 241.87 260.19 242.1 259.93 242.34C259.93 243.3 258.91 245.44 255.83 245.44C254.895 245.467 253.978 245.174 253.231 244.611C252.484 244.048 251.951 243.247 251.72 242.34C251.72 242.34 251.72 241.87 252.23 241.87V241.87Z" fill="white"/>
    <path d="M215.36 302.6L213.03 311.36L275.64 319.25H286.27L287.17 311.85L215.36 302.59V302.6Z" fill="#49C57D"/>
    <path d="M159.56 191.86H52.1599C46.6371 191.86 42.1599 196.337 42.1599 201.86V309.27C42.1599 314.793 46.6371 319.27 52.1599 319.27H159.56C165.083 319.27 169.56 314.793 169.56 309.27V201.86C169.56 196.337 165.083 191.86 159.56 191.86Z" fill="#D5E3EC"/>
    <path d="M168.83 311.48C167.986 313.763 166.463 315.732 164.466 317.123C162.469 318.514 160.094 319.26 157.66 319.26H54.0599C50.9038 319.26 47.877 318.006 45.6453 315.775C43.4137 313.543 42.1599 310.516 42.1599 307.36V290.1C42.6999 289.34 43.3099 288.61 43.9999 287.92C58.5299 273.69 87.2999 272.25 87.2999 272.25L104.67 270.91C104.67 270.91 135.36 268.47 145.99 276.61C153.21 282.13 163.36 300.74 168.83 311.48Z" fill="#FFC853"/>
    <path d="M81.64 319.26H74.94C68.91 311.52 62.43 303.02 62.8 302.7C63.42 301.91 71.77 306.2 81.64 319.26V319.26ZM150.33 319.26H138.75C138.18 310.77 136.82 289.78 137.35 289.11C137.9 288.63 146.81 310.54 150.33 319.26V319.26Z" fill="#DBA93E"/>
    <path d="M115.77 228.34C128.71 230.34 128.79 224.73 126.84 221.14C124.66 217.84 120.44 216.57 120.44 216.57C120.44 216.57 128 218.2 128.03 212.09C128.08 206.23 117.75 200.61 101.33 201.32C84.6901 202.32 60.0401 212.68 71.2501 225.58C66.5001 232.52 66.5001 234.55 72.9001 245.48C79.2701 256.17 91.5001 262.83 95.3401 256.77" fill="#503D37"/>
    <path d="M87.3 272.25C87.55 274.25 88.3 276.2 89.7299 277.55C91.7299 279.35 95.31 281.72 101.16 281.77C110.56 281.91 109.26 271.12 109.26 271.12L109.41 257.62L86.45 250.46C87.4 257.69 87.69 264.98 87.31 272.25H87.3Z" fill="#EFAE9A"/>
    <path d="M86.45 250.46C87.15 256.23 87.47 263.06 87.57 268.15C94.9174 269.804 102.611 268.872 109.35 265.51L109.41 257.61L86.45 250.46V250.46Z" fill="#C98570"/>
    <path d="M117.35 216.18C93.9599 232.76 84.6599 227.26 84.6599 227.26C84.6599 227.26 86.9799 242.26 84.3699 245.88L80.5999 235.65C80.5999 235.65 70.6199 237.11 72.4999 244.26C74.8999 251.61 82.8699 248.1 82.8699 248.1C82.8699 248.1 90.1199 266.06 106.77 263.02C123.44 260.24 123.59 244.7 117.35 216.18V216.18Z" fill="#EFAE9A"/>
    <path d="M105.67 237.2L109.34 244.39C109.99 245.59 109.03 246.48 107.89 247.11L105.63 248.09L105.67 237.2ZM78.03 245.89C81.03 245.52 78.99 239.15 75.51 241.86L78.03 245.88V245.89Z" stroke="#C98570" stroke-width="0.3" stroke-miterlimit="10" stroke-linecap="round" stroke-linejoin="round"/>
    <path d="M115.58 230.91C115.58 230.91 111.96 228.29 108.51 231.25M97.97 232.27C97.97 232.27 94.19 230.44 91.05 233.87L97.97 232.27Z" stroke="#121B42" stroke-width="0.6" stroke-miterlimit="10" stroke-linecap="round" stroke-linejoin="round"/>
    <path d="M111.44 254.77C111.44 254.77 107.24 256.27 104.5 254.39" stroke="#C98570" stroke-width="0.6" stroke-miterlimit="10" stroke-linecap="round" stroke-linejoin="round"/>
    <path d="M97.6001 241.87C98.5887 241.87 99.3901 241.069 99.3901 240.08C99.3901 239.091 98.5887 238.29 97.6001 238.29C96.6115 238.29 95.8101 239.091 95.8101 240.08C95.8101 241.069 96.6115 241.87 97.6001 241.87Z" fill="#121B42"/>
    <path d="M115 239.65C115.939 239.65 116.7 238.889 116.7 237.95C116.7 237.011 115.939 236.25 115 236.25C114.061 236.25 113.3 237.011 113.3 237.95C113.3 238.889 114.061 239.65 115 239.65Z" fill="#121B42"/>
    <path fill-rule="evenodd" clip-rule="evenodd" d="M84.0599 243.9C82.7699 247.62 81.8399 255.83 86.1999 258.2C88.0022 259.19 89.6863 260.381 91.2199 261.75C92.3699 262.71 93.4699 263.65 95.1399 264.6C98.7096 266.658 102.723 267.824 106.84 268C107.39 268 107.94 268.03 108.46 268.06C111.28 268.19 113.68 268.31 115.62 265.81C116.4 264.802 117.248 263.85 118.16 262.96C119.34 261.79 120.16 260.96 120.96 258.79C122.3 255.11 122.82 243.71 120.96 239.61C120.32 241.03 120.05 242.51 119.8 243.91C119.49 245.59 119.2 247.14 118.33 248.26C116.73 250.31 115.9 251.14 112.63 250.82C111.88 250.745 111.133 250.645 110.39 250.52C108.38 250.18 106.74 249.92 103.92 250.82C103.21 251.05 102.48 251.36 101.74 251.68C98.54 253.04 94.9799 254.55 90.7199 250.44C88.3199 248.14 86.9099 245.92 85.9999 244.49C84.8999 242.79 84.5299 242.19 84.0599 243.9V243.9ZM107.94 256.8C110.9 256.8 113.29 255.87 113.29 254.73C113.29 253.59 110.89 252.67 107.94 252.67C104.98 252.67 102.58 253.59 102.58 254.73C102.58 255.87 104.98 256.79 107.94 256.79V256.8Z" fill="#503D37"/>
    <path d="M341.5 48.5H440.5V314C440.5 315.193 440.026 316.338 439.182 317.182C438.338 318.026 437.193 318.5 436 318.5H346C344.807 318.5 343.662 318.026 342.818 317.182C341.974 316.338 341.5 315.193 341.5 314V48.5Z" fill="#EAF5FD" stroke="#D5E3EC"/>
    <path d="M430.1 61.23H369.57C369.189 61.2274 368.817 61.1125 368.501 60.8998C368.184 60.6871 367.938 60.3859 367.792 60.0339C367.645 59.6819 367.606 59.2946 367.679 58.9204C367.751 58.5463 367.933 58.2018 368.2 57.93C368.56 57.56 369.06 57.36 369.57 57.36H430C430.381 57.3626 430.753 57.4775 431.069 57.6902C431.386 57.9029 431.632 58.2041 431.778 58.5561C431.924 58.9081 431.964 59.2954 431.891 59.6696C431.818 60.0437 431.637 60.3882 431.37 60.66C431 61.03 430.51 61.23 430 61.23H430.1ZM405.51 69.54H369.57C369.304 69.5591 369.037 69.5233 368.786 69.4347C368.535 69.3461 368.304 69.2067 368.109 69.0251C367.914 68.8436 367.758 68.6238 367.652 68.3795C367.546 68.1351 367.491 67.8715 367.491 67.605C367.491 67.3385 367.546 67.0749 367.652 66.8305C367.758 66.5862 367.914 66.3664 368.109 66.1849C368.304 66.0033 368.535 65.8639 368.786 65.7753C369.037 65.6867 369.304 65.6509 369.57 65.67H405.4C405.782 65.6707 406.155 65.7841 406.473 65.9961C406.791 66.2081 407.039 66.5091 407.186 66.8615C407.334 67.2139 407.374 67.602 407.301 67.9771C407.229 68.3522 407.048 68.6976 406.78 68.97C406.41 69.34 405.92 69.55 405.4 69.55H405.51V69.54ZM421.36 77.86H369.7C369.422 77.8879 369.141 77.8572 368.875 77.7699C368.61 77.6826 368.366 77.5407 368.158 77.3532C367.951 77.1657 367.785 76.9368 367.672 76.6813C367.559 76.4259 367.5 76.1495 367.5 75.87C367.5 75.5905 367.559 75.3141 367.672 75.0587C367.785 74.8032 367.951 74.5743 368.158 74.3868C368.366 74.1993 368.61 74.0574 368.875 73.9701C369.141 73.8828 369.422 73.8521 369.7 73.88H421.35C421.616 73.8609 421.883 73.8967 422.134 73.9853C422.385 74.0739 422.616 74.2133 422.811 74.3949C423.006 74.5764 423.161 74.7962 423.268 75.0405C423.374 75.2849 423.429 75.5485 423.429 75.815C423.429 76.0815 423.374 76.3451 423.268 76.5895C423.161 76.8338 423.006 77.0536 422.811 77.2351C422.616 77.4167 422.385 77.5561 422.134 77.6447C421.883 77.7333 421.616 77.7691 421.35 77.75V77.85L421.36 77.86Z" fill="#D5E3EC"/>
    <path d="M356.92 71.33C360.863 71.33 364.06 68.1333 364.06 64.19C364.06 60.2467 360.863 57.05 356.92 57.05C352.977 57.05 349.78 60.2467 349.78 64.19C349.78 68.1333 352.977 71.33 356.92 71.33Z" fill="#D5E3EC"/>
    <path d="M430.1 226.85H369.57C369.055 226.85 368.562 226.646 368.198 226.282C367.834 225.918 367.63 225.425 367.63 224.91C367.629 224.655 367.678 224.402 367.775 224.166C367.872 223.93 368.015 223.716 368.195 223.535C368.376 223.355 368.59 223.212 368.826 223.115C369.062 223.018 369.315 222.969 369.57 222.97H430C430.514 222.97 431.008 223.174 431.372 223.538C431.735 223.902 431.94 224.395 431.94 224.91C431.94 225.425 431.735 225.918 431.372 226.282C431.008 226.646 430.514 226.85 430 226.85H430.1ZM405.51 235.16H369.57C369.189 235.157 368.817 235.043 368.501 234.83C368.184 234.617 367.938 234.316 367.792 233.964C367.645 233.612 367.606 233.225 367.679 232.85C367.751 232.476 367.933 232.132 368.2 231.86C368.56 231.49 369.06 231.29 369.57 231.29H405.4C405.782 231.291 406.155 231.404 406.473 231.616C406.791 231.828 407.039 232.129 407.186 232.482C407.334 232.834 407.374 233.222 407.301 233.597C407.229 233.972 407.048 234.318 406.78 234.59C406.41 234.96 405.92 235.16 405.4 235.16H405.51ZM421.36 243.48H369.7C369.169 243.48 368.661 243.269 368.286 242.894C367.911 242.519 367.7 242.01 367.7 241.48C367.703 240.951 367.914 240.445 368.289 240.072C368.664 239.699 369.171 239.49 369.7 239.49H421.35C421.733 239.491 422.107 239.605 422.426 239.818C422.744 240.031 422.992 240.334 423.139 240.688C423.285 241.042 423.324 241.432 423.249 241.807C423.175 242.183 422.99 242.529 422.72 242.8C422.35 243.16 421.86 243.37 421.34 243.37V243.47L421.36 243.48Z" fill="#D5E3EC"/>
    <path d="M356.92 234.83C360.863 234.83 364.06 231.633 364.06 227.69C364.06 223.747 360.863 220.55 356.92 220.55C352.977 220.55 349.78 223.747 349.78 227.69C349.78 231.633 352.977 234.83 356.92 234.83Z" fill="#D5E3EC"/>
    <path d="M430.1 261.29H369.57C369.055 261.29 368.562 261.086 368.198 260.722C367.834 260.358 367.63 259.865 367.63 259.35C367.63 258.835 367.834 258.342 368.198 257.978C368.562 257.614 369.055 257.41 369.57 257.41H430C430.514 257.41 431.008 257.614 431.372 257.978C431.735 258.342 431.94 258.835 431.94 259.35C431.94 259.865 431.735 260.358 431.372 260.722C431.008 261.086 430.514 261.29 430 261.29H430.1ZM405.51 269.6H369.57C369.189 269.597 368.817 269.483 368.501 269.27C368.184 269.057 367.938 268.756 367.792 268.404C367.645 268.052 367.606 267.665 367.679 267.29C367.751 266.916 367.933 266.572 368.2 266.3C368.56 265.93 369.06 265.73 369.57 265.73H405.4C405.782 265.731 406.155 265.844 406.473 266.056C406.791 266.268 407.039 266.569 407.186 266.922C407.334 267.274 407.374 267.662 407.301 268.037C407.229 268.412 407.048 268.758 406.78 269.03C406.41 269.4 405.92 269.6 405.4 269.6H405.51ZM421.36 277.92H369.7C369.169 277.92 368.661 277.709 368.286 277.334C367.911 276.959 367.7 276.45 367.7 275.92C367.703 275.391 367.914 274.885 368.289 274.512C368.664 274.139 369.171 273.93 369.7 273.93H421.35C421.864 273.93 422.358 274.134 422.722 274.498C423.086 274.862 423.29 275.355 423.29 275.87C423.29 276.385 423.086 276.878 422.722 277.242C422.358 277.606 421.864 277.81 421.35 277.81V277.91L421.36 277.92Z" fill="#D5E3EC"/>
    <path d="M356.92 268.78C360.863 268.78 364.06 265.583 364.06 261.64C364.06 257.697 360.863 254.5 356.92 254.5C352.977 254.5 349.78 257.697 349.78 261.64C349.78 265.583 352.977 268.78 356.92 268.78Z" fill="#D5E3EC"/>
    <path d="M430.1 296.1H369.57C369.189 296.097 368.817 295.983 368.501 295.77C368.184 295.557 367.938 295.256 367.792 294.904C367.645 294.552 367.606 294.165 367.679 293.79C367.752 293.416 367.933 293.072 368.2 292.8C368.56 292.44 369.06 292.23 369.57 292.23H430C430.383 292.231 430.757 292.345 431.076 292.558C431.394 292.771 431.642 293.074 431.789 293.428C431.935 293.782 431.974 294.172 431.899 294.547C431.825 294.923 431.641 295.269 431.37 295.54C431 295.9 430.51 296.11 430 296.11H430.1V296.1ZM405.51 304.42H369.57C369.189 304.417 368.817 304.303 368.501 304.09C368.184 303.877 367.938 303.576 367.792 303.224C367.645 302.872 367.606 302.485 367.679 302.11C367.752 301.736 367.933 301.392 368.2 301.12C368.56 300.75 369.06 300.55 369.57 300.55H405.4C405.782 300.551 406.155 300.664 406.473 300.876C406.791 301.088 407.039 301.389 407.186 301.742C407.334 302.094 407.374 302.482 407.301 302.857C407.229 303.232 407.048 303.578 406.78 303.85C406.41 304.22 405.92 304.42 405.4 304.42H405.51ZM421.36 312.74H369.7C369.426 312.759 369.151 312.722 368.892 312.631C368.633 312.539 368.396 312.395 368.195 312.208C367.994 312.021 367.834 311.795 367.725 311.543C367.615 311.291 367.559 311.02 367.559 310.745C367.559 310.47 367.615 310.199 367.725 309.947C367.834 309.695 367.994 309.469 368.195 309.282C368.396 309.095 368.633 308.951 368.892 308.859C369.151 308.768 369.426 308.731 369.7 308.75H421.35C421.733 308.751 422.108 308.865 422.426 309.078C422.744 309.291 422.992 309.594 423.139 309.948C423.285 310.302 423.324 310.692 423.249 311.068C423.175 311.443 422.991 311.789 422.72 312.06C422.35 312.43 421.86 312.63 421.34 312.63V312.73L421.36 312.74Z" fill="#D5E3EC"/>
    <path d="M356.92 303.22C360.863 303.22 364.06 300.023 364.06 296.08C364.06 292.137 360.863 288.94 356.92 288.94C352.977 288.94 349.78 292.137 349.78 296.08C349.78 300.023 352.977 303.22 356.92 303.22Z" fill="#D5E3EC"/>
    <path d="M430.1 93.5H369.57C369.055 93.5 368.562 93.2956 368.198 92.9318C367.834 92.568 367.63 92.0745 367.63 91.56C367.629 91.3049 367.678 91.052 367.775 90.8161C367.872 90.5801 368.015 90.3657 368.195 90.1853C368.376 90.0049 368.59 89.862 368.826 89.765C369.062 89.668 369.315 89.6187 369.57 89.62H430C430.514 89.62 431.008 89.8244 431.372 90.1882C431.735 90.552 431.94 91.0455 431.94 91.56C431.94 92.0745 431.735 92.568 431.372 92.9318C431.008 93.2956 430.514 93.5 430 93.5H430.1ZM405.51 101.81H369.57C369.189 101.807 368.817 101.693 368.501 101.48C368.184 101.267 367.938 100.966 367.792 100.614C367.645 100.262 367.606 99.8746 367.679 99.5005C367.751 99.1263 367.933 98.7818 368.2 98.51C368.56 98.14 369.06 97.94 369.57 97.94H405.4C405.782 97.9407 406.155 98.0541 406.473 98.2661C406.791 98.4781 407.039 98.7791 407.186 99.1315C407.334 99.484 407.374 99.872 407.301 100.247C407.229 100.622 407.048 100.968 406.78 101.24C406.41 101.61 405.92 101.81 405.4 101.81H405.51ZM421.36 110.12H369.7C369.171 110.12 368.664 109.911 368.289 109.538C367.914 109.165 367.703 108.659 367.7 108.13C367.703 107.601 367.914 107.095 368.289 106.722C368.664 106.349 369.171 106.14 369.7 106.14H421.35C421.733 106.141 422.107 106.255 422.426 106.468C422.744 106.681 422.992 106.984 423.139 107.338C423.285 107.692 423.324 108.082 423.249 108.458C423.175 108.833 422.99 109.179 422.72 109.45C422.35 109.81 421.86 110.02 421.34 110.02V110.12H421.36Z" fill="#D5E3EC"/>
    <path d="M356.92 103.17C360.863 103.17 364.06 99.9733 364.06 96.03C364.06 92.0867 360.863 88.89 356.92 88.89C352.977 88.89 349.78 92.0867 349.78 96.03C349.78 99.9733 352.977 103.17 356.92 103.17Z" fill="#D5E3EC"/>
    <path d="M430.1 126.2H369.57C369.055 126.2 368.562 125.996 368.198 125.632C367.834 125.268 367.63 124.775 367.63 124.26C367.63 123.745 367.834 123.252 368.198 122.888C368.562 122.524 369.055 122.32 369.57 122.32H430C430.514 122.32 431.008 122.524 431.372 122.888C431.735 123.252 431.94 123.745 431.94 124.26C431.94 124.775 431.735 125.268 431.372 125.632C431.008 125.996 430.514 126.2 430 126.2H430.1ZM405.51 134.51H369.57C369.055 134.51 368.562 134.306 368.198 133.942C367.834 133.578 367.63 133.085 367.63 132.57C367.63 132.316 367.68 132.064 367.778 131.829C367.875 131.594 368.018 131.381 368.199 131.202C368.379 131.022 368.593 130.88 368.828 130.784C369.064 130.688 369.316 130.639 369.57 130.64H405.4C405.666 130.621 405.933 130.657 406.184 130.745C406.435 130.834 406.666 130.973 406.861 131.155C407.056 131.336 407.211 131.556 407.318 131.801C407.424 132.045 407.479 132.309 407.479 132.575C407.479 132.841 407.424 133.105 407.318 133.349C407.211 133.594 407.056 133.814 406.861 133.995C406.666 134.177 406.435 134.316 406.184 134.405C405.933 134.493 405.666 134.529 405.4 134.51H405.51ZM421.36 142.82H369.7C369.171 142.82 368.664 142.611 368.289 142.238C367.914 141.865 367.703 141.359 367.7 140.83C367.703 140.301 367.914 139.795 368.289 139.422C368.664 139.049 369.171 138.84 369.7 138.84H421.35C421.864 138.84 422.358 139.044 422.722 139.408C423.086 139.772 423.29 140.265 423.29 140.78C423.29 141.295 423.086 141.788 422.722 142.152C422.358 142.516 421.864 142.72 421.35 142.72V142.82H421.36Z" fill="#D5E3EC"/>
    <path d="M356.92 135.43C360.863 135.43 364.06 132.233 364.06 128.29C364.06 124.347 360.863 121.15 356.92 121.15C352.977 121.15 349.78 124.347 349.78 128.29C349.78 132.233 352.977 135.43 356.92 135.43Z" fill="#D5E3EC"/>
    <path d="M430.1 159.33H369.57C369.304 159.349 369.037 159.313 368.786 159.225C368.535 159.136 368.304 158.997 368.109 158.815C367.914 158.634 367.758 158.414 367.652 158.169C367.546 157.925 367.491 157.662 367.491 157.395C367.491 157.129 367.546 156.865 367.652 156.621C367.758 156.376 367.914 156.156 368.109 155.975C368.304 155.793 368.535 155.654 368.786 155.565C369.037 155.477 369.304 155.441 369.57 155.46H430C430.513 155.46 431.005 155.663 431.368 156.025C431.732 156.386 431.937 156.877 431.94 157.39C431.94 157.905 431.735 158.398 431.372 158.762C431.008 159.126 430.514 159.33 430 159.33H430.1ZM405.51 167.65H369.57C369.055 167.65 368.562 167.446 368.198 167.082C367.834 166.718 367.63 166.225 367.63 165.71C367.629 165.455 367.678 165.202 367.775 164.966C367.872 164.73 368.015 164.516 368.195 164.335C368.376 164.155 368.59 164.012 368.826 163.915C369.062 163.818 369.315 163.769 369.57 163.77H405.4C405.914 163.77 406.408 163.974 406.772 164.338C407.136 164.702 407.34 165.195 407.34 165.71C407.34 166.225 407.136 166.718 406.772 167.082C406.408 167.446 405.914 167.65 405.4 167.65H405.51ZM421.36 175.95H369.7C369.173 175.95 368.667 175.742 368.293 175.371C367.918 175.001 367.705 174.497 367.7 173.97C367.7 173.44 367.911 172.931 368.286 172.556C368.661 172.181 369.169 171.97 369.7 171.97H421.35C421.864 171.97 422.358 172.174 422.722 172.538C423.086 172.902 423.29 173.395 423.29 173.91C423.29 174.425 423.086 174.918 422.722 175.282C422.358 175.646 421.864 175.85 421.35 175.85V175.95H421.36Z" fill="#D5E3EC"/>
    <path d="M356.92 168.13C360.863 168.13 364.06 164.933 364.06 160.99C364.06 157.047 360.863 153.85 356.92 153.85C352.977 153.85 349.78 157.047 349.78 160.99C349.78 164.933 352.977 168.13 356.92 168.13Z" fill="#D5E3EC"/>
    <path d="M430.1 192.9H369.57C369.055 192.9 368.562 192.696 368.198 192.332C367.834 191.968 367.63 191.475 367.63 190.96C367.63 190.446 367.834 189.952 368.198 189.588C368.562 189.224 369.055 189.02 369.57 189.02H430C430.514 189.02 431.008 189.224 431.372 189.588C431.735 189.952 431.94 190.446 431.94 190.96C431.94 191.475 431.735 191.968 431.372 192.332C431.008 192.696 430.514 192.9 430 192.9H430.1ZM405.51 201.21H369.57C369.057 201.21 368.565 201.007 368.202 200.645C367.838 200.284 367.633 199.793 367.63 199.28C367.629 199.025 367.678 198.772 367.775 198.536C367.872 198.3 368.015 198.086 368.195 197.905C368.376 197.725 368.59 197.582 368.826 197.485C369.062 197.388 369.315 197.339 369.57 197.34H405.4C405.666 197.321 405.933 197.357 406.184 197.445C406.435 197.534 406.666 197.673 406.861 197.855C407.056 198.036 407.211 198.256 407.318 198.501C407.424 198.745 407.479 199.009 407.479 199.275C407.479 199.542 407.424 199.805 407.318 200.049C407.211 200.294 407.056 200.514 406.861 200.695C406.666 200.877 406.435 201.016 406.184 201.105C405.933 201.193 405.666 201.229 405.4 201.21H405.51ZM421.36 209.53H369.7C369.169 209.53 368.661 209.319 368.286 208.944C367.911 208.569 367.7 208.06 367.7 207.53C367.703 207.001 367.914 206.495 368.289 206.122C368.664 205.749 369.171 205.54 369.7 205.54H421.35C421.864 205.54 422.358 205.744 422.722 206.108C423.086 206.472 423.29 206.965 423.29 207.48C423.29 207.995 423.086 208.488 422.722 208.852C422.358 209.216 421.864 209.42 421.35 209.42V209.52L421.36 209.53Z" fill="#D5E3EC"/>
    <path d="M356.92 201.27C360.863 201.27 364.06 198.073 364.06 194.13C364.06 190.187 360.863 186.99 356.92 186.99C352.977 186.99 349.78 190.187 349.78 194.13C349.78 198.073 352.977 201.27 356.92 201.27Z" fill="#D5E3EC"/>
    <path d="M340.84 43.25C340.84 41.9239 341.367 40.6521 342.305 39.7145C343.242 38.7768 344.514 38.25 345.84 38.25H435.86C437.186 38.25 438.458 38.7768 439.396 39.7145C440.333 40.6521 440.86 41.9239 440.86 43.25V48.37H340.84V43.25Z" fill="#D5E3EC"/>
    <path d="M467.15 299.13C464.334 308.895 459.174 317.824 452.12 325.14L420.79 316.4C418.49 313.49 416.62 309.95 414.74 306.2C405.76 286.44 404.5 259.38 407.01 260.42C408.68 260.84 417.24 270.82 423.71 283.94C421.63 256.47 425.81 224.84 429.36 220.26C433.11 215.68 441.68 249.39 443.14 280.19C446.69 266.67 451.91 254.59 455.04 252.93C458.8 250.85 458.8 276.23 455.25 297.47C461.52 285.39 469.87 277.9 471.12 280.19C471.96 281.86 470.29 289.97 466.95 299.13H467.15V299.13Z" fill="#41CF7B"/>
    <path d="M467.15 299.13C464.334 308.895 459.174 317.824 452.12 325.14L420.79 316.4C418.49 313.49 416.62 309.95 414.74 306.2L427.27 304.54L430.82 304.12L439.17 302.88L442.72 302.46L453.58 301H454.83L467.15 299.13V299.13Z" fill="#00B17B"/>
    <path d="M410.35 311H466.74C470.91 311 473.63 314.53 472.58 318.28L467.98 334.51C466.513 339.627 463.415 344.124 459.156 347.317C454.898 350.511 449.713 352.225 444.39 352.2H432.9C427.574 352.227 422.386 350.512 418.125 347.316C413.865 344.121 410.766 339.62 409.3 334.5L404.71 318.28C404.477 317.418 404.446 316.514 404.621 315.638C404.796 314.762 405.171 313.939 405.718 313.233C406.264 312.527 406.967 311.957 407.771 311.567C408.574 311.178 409.457 310.981 410.35 310.99V311Z" fill="#D5E3EC"/>
    <path d="M77.9199 334.27C78.7499 332.091 78.8578 329.703 78.2276 327.457C77.5975 325.212 76.2626 323.229 74.4199 321.8C72.8867 320.62 71.0622 319.878 69.1406 319.652C67.219 319.427 65.2722 319.726 63.5075 320.52C61.7427 321.313 60.226 322.569 59.1189 324.156C58.0117 325.743 57.3554 327.6 57.2199 329.53C57.0199 332.13 57.7399 334.7 59.2699 336.79C60.7935 338.872 63.0164 340.334 65.531 340.909C68.0457 341.484 70.6833 341.133 72.9599 339.92C75.2377 338.693 76.9982 336.688 77.9199 334.27V334.27ZM69.2599 366.87L57.3999 365.37L58.7199 355.5C56.3039 354.539 54.0244 353.264 51.9399 351.71L44.4099 357.78L36.8899 348.3L44.5999 342.23C43.5563 339.825 42.9209 337.264 42.7199 334.65L32.9299 333.51L34.2499 321.57L44.0399 322.9C44.9504 320.509 46.2181 318.271 47.7999 316.26L41.7799 308.3L51.1899 300.9L57.5899 308.68C59.8499 307.73 62.2899 306.98 64.9299 306.78L66.0599 296.93L77.9199 298.44L76.7899 308.3C79.2399 309.06 81.3099 310.39 83.3799 312.1L91.0999 305.84L98.6199 315.32L90.7199 321.57C91.6599 323.85 92.5999 326.31 92.5999 328.97L102.58 330.1L101.08 342.04L91.2799 340.91C90.3265 343.277 89.0621 345.507 87.5199 347.54L93.5399 355.31L84.1399 362.9L78.1099 354.94C75.7798 356.145 73.2028 356.795 70.5799 356.84L69.4499 366.88H69.2599V366.87Z" fill="#121B42"/>
    <path d="M25.5999 309.25C26.2158 308.407 26.616 307.426 26.7658 306.393C26.9156 305.36 26.8104 304.306 26.4593 303.323C26.1082 302.339 25.522 301.457 24.7517 300.752C23.9814 300.048 23.0504 299.542 22.0399 299.28C21.0216 299.021 19.9546 299.021 18.9362 299.28C17.9178 299.539 16.9803 300.048 16.2091 300.762C15.4378 301.475 14.8573 302.37 14.5203 303.366C14.1834 304.361 14.1008 305.425 14.2799 306.46C14.4782 307.716 15.042 308.885 15.901 309.823C16.76 310.76 17.8761 311.423 19.1099 311.73C20.3423 312.029 21.6357 311.952 22.8242 311.51C24.0127 311.068 25.042 310.281 25.7799 309.25H25.5899H25.5999ZM13.5499 324.98L7.32993 321.38L10.5299 316.26C9.43669 315.263 8.48758 314.119 7.70993 312.86L2.05993 314.36L0.179932 307.36L5.82993 305.84L6.38993 301.29L1.30993 298.44L4.88993 292.19L9.96993 295.22C11.0291 294.116 12.2335 293.16 13.5499 292.38L12.0399 286.69L18.8199 284.79L20.3199 290.49C21.8199 290.49 23.3299 290.49 24.8399 291.05L27.4699 285.93L33.6899 289.53L30.8599 294.65C31.9899 295.6 32.7399 296.93 33.4999 298.25L39.1399 296.74L41.0299 303.56L35.3799 305.08C35.3799 306.6 35.3799 308.11 34.8199 309.63L39.8999 312.47L36.4999 318.73L31.4299 315.88C30.2999 316.83 29.1699 317.78 27.6599 318.54L29.3599 324.23L22.5799 326.13L20.8799 320.43C19.3799 320.43 17.8799 320.43 16.5599 319.87L13.5399 324.98H13.5499Z" fill="#121B42"/>
</svg>
