<svg xmlns="http://www.w3.org/2000/svg" fill="none" viewBox="0 0 221 198">
  <path fill="#121B42" d="M205.6 144l-37 6.3c-2.3.4-4.7-.8-5.6-3L149.2 117l-3.5 6.4-8.1 14.6 5.6 38.6-12.7 4.5s-9-41-9.2-43c0-2.1 14-43 14-43l31.5 4.3 8.2 34.5 28.4-3.2 2.2 13.4z"/>
  <path fill="#FFC7B6" d="M144.1 51.5l-7.5 8.6a44 44 0 01-6.6-9.8c-.2-2.5 2.4-24.5 2.4-24.5s-1.8-5-2-7.6c-.2-2.5 1-1.5 1.3-1l1.2 2.7c0-.3-1-5.7-.1-6 1-.3 1.8 5 1.8 5s.3-5.5 1.2-5.5c.9 0 .8 5.8.8 5.8s.2-5 1.2-4.8c1 .3.4 7.8.4 7.8s1-1.5 1.7-1c.7.6-2.2 4.2-2.2 4.2s.8 18.5 1.4 20.7c.2 1 2.4 3.1 5 5.4zM193 33s-4.3 18.4-5.5 20.2c-.7 1-5.4 5.9-9.6 10l-6.8-9.2c4.3-2.4 8.4-4.7 8.5-5l8-18.3s-2.4-4.4-2-5.9c.3-1.4 3 2 3 2s0-10.2 1.2-10c1.2.1 1 7.7 1 7.7s1.2-8.1 2.3-8c1 0 .1 7.6.1 7.6 0 .1 2-6.8 3-6.5 1 .3-.8 7.2-.8 7.2s1.7-4 2.6-3.7c.9.4-3.1 11.2-5 12z"/>
  <path fill="#4869EE" d="M178 63.3l-6.6 6.7a197 197 0 00-3 21c0 1.4-.2 2.7-.3 4a24 24 0 00-.2 6c.8 1.4-34.1-3.4-34.1-4.6a69.8 69.8 0 012.5-9.4 1577.2 1577.2 0 015.8-19.6c.2-.2-2.6-3.6-5.5-7.3l7.5-8.6c4.1 3.5 9.4 7.2 10.8 7.4l5.8.7L171 54l6.8 9.3z"/>
  <path fill="#4869EE" d="M150.6 43.2c-3.6-2.3-4.3-6.6-2-7.5 2.3-.9 4.8 1 4.8 1s-2.4-1.6-.9-3.6 4.8 2.5 7.2 3.5c2.5 1 5.5 1 6.5 2.8 1 1.7-.4 4.6-.4 4.6s2-.3 1.4 2.4c-.5 2.8-2.4 7.5-4.5 7.9-2 .4-3.5-.5-3.5-.5"/>
  <path fill="#FFC7B6" d="M161.2 60.1c0 .7-.3 1.4-.8 1.8a6 6 0 01-4.1 1.5c-3.4 0-3-3.8-3-3.8v-4.8l8.4-2.4a42.4 42.4 0 00-.5 7.7z"/>
  <path fill="#E57A92" d="M161.7 52.4c-.4 2-.5 4.4-.5 6.2-3.1.9-6.1-.1-7.8-.9v-3l8.3-2.3z"/>
  <path fill="#FFC7B6" d="M150.7 40C153 45 162 46.4 162 46.4s-.6 3 .2 4.4l1.5-3.6s3.6.5 2.8 3.1c-.8 2.6-3.6 1.2-3.6 1.2s-2.7 6.5-8.7 5.4c-5.9-1.1-6-6.6-3.6-16.7z"/>
  <path stroke="#E57A92" stroke-linecap="round" stroke-linejoin="round" stroke-miterlimit="10" stroke-width=".3" d="M164.7 50.7c-1.1-.1-.3-2.4.8-1.4M154.9 47.6l-1.4 2.5c-.3.4 0 1 .4 1l.8.3"/>
  <path fill="#121B42" d="M158.9 48.8a.6.6 0 11-1.2 0 .6.6 0 011.2 0zM152.5 48a.6.6 0 11-1.1 0 .6.6 0 011.1 0z"/>
  <path stroke="#121B42" stroke-linecap="round" stroke-linejoin="round" stroke-miterlimit="10" stroke-width=".5" d="M157.6 46.6s1.4-.7 2.5.6M151.3 45.5s1.3-.9 2.5.2"/>
  <path fill="#fff" d="M154.5 52.8h3s.1.1 0 .2c0 .4-.4 1.3-1.6 1.3-1.1 0-1.5-.9-1.6-1.3 0 0 0-.2.2-.2z"/>
  <path fill="#7593FF" d="M168.5 91l-.4 4-32.8-4.3 1-3.7 32.2 4zM169.5 83l-.5 3.8-31.4-4 1-3.8 30.9 4z"/>
  <path fill="#080F28" d="M149.2 116.9l-3.5 6.4-3-9.3 6.5 2.9z"/>
  <path fill="#D5E3EC" d="M130.5 181l-8 15a1 1 0 001.4 1.4l22.4-11.9c.5-.3.7-.9.4-1.4l-3.5-7.6-12.7 4.5zM205.6 144l13.3 10.5c.9.7 2-.1 1.7-1.1l-7.7-24.2a1 1 0 00-1.3-.7l-8.2 2.2 2.2 13.3z"/>
  <path fill="#4869EE" d="M25.5 164.4l-5 16.2a1 1 0 01-2 0L11 156.4a1 1 0 01.7-1.3l8-3 5.7 12.3zM63.4 170.3l8.3 14.8c.6 1-.4 2-1.4 1.5l-22.6-11.3a1 1 0 01-.5-1.4l3.3-7.7 12.9 4.1z"/>
  <path fill="#121B42" d="M63.9 170.7s-11.6-2.8-13.1-4.3c-.2 0-.2-.2-.2-.3 0-1.4 5.2-36.4 5.2-36.4l-8.7-29.6-4.2-14.3 4.2-1.4 11.7 3.1s11.4 28.9 13 35.3c1.6 6.4-7.9 48-7.9 48z"/>
  <path fill="#080F28" d="M63.2 134c-.2 8-9 21-12.4 32.4-.2 0-.2-.2-.2-.3 0-1.4 5.2-36.4 5.2-36.4l-8.7-29.6.9-5c4.4 10.4 15.4 28.2 15.2 38.9z"/>
  <path fill="#121B42" d="M27.6 91.1c-2.2 16.8 4.9 28.2 15.7 40a140.4 140.4 0 00-23.7 21c0 .8 4.7 11.9 6 12.3 1.1.3 32-24.5 33.6-30.7 1.6-6.1-13.6-47.9-13.6-47.9"/>
  <path fill="#FFC7B6" d="M65.8 14.9c-2-4.2-2.1-8.3-1.5-9.1.6-.8 2 3 2 3s1.1-7.5 2-7.4c1 .2.4 5.4.4 5.4S71.1-.4 72.2 0c1 .4-1 7.4-1 7.4S74 2 75 2.3c1 .3-1.7 6.8-1.6 6.7 0 0 2-3.8 2.9-3.3.8.5-3 9.7-5.5 10.1M2.7 59.3S-.3 55.2 0 54c.3-1.1 4-5.2 5.3-4.7 1.3.6 2.3 3.6 2.4 3.4.1-.2 1.3-.4 1.7.5.4 1-.4 6.1-.4 6.1"/>
  <path fill="#121B42" d="M43.8 27.7c-7.9-5.7-17.6-1.1-18.6 8.5-1 9.7-15.3 16.8-5.6 26.9 9.7 10.1 28.2 7.6 32.5-5.2 4.2-12.8-2.2-18-3.5-23-1.2-5.1-3.4-7.2-4.8-7.2z"/>
  <path fill="#F25453" d="M66.8 38c-1.2 3-12.5 19-12.5 19.8 0 .9 2.4 2.6 1.7 7-.5 3.8-1 6.1-.8 8.9a17.2 17.2 0 00.5 3 50.6 50.6 0 001.6 6 232.3 232.3 0 001.5 4.8l-31.2 3.6V89a493.6 493.6 0 000-13v-.2c-.5-2.8-2.7-8.2-2.7-8.2s-5.8 16.3-11.3 16.8c-5.5.5-6-2.1-8-10.3-1.9-8.2-3.5-14.9-3.3-15.2.2-.4 6.6-1.2 7-1.3.4 0 4.2 12 4.2 12s4.8-13.2 9.6-16.9c4.8-3.7 16.7-3 16.7-3a25 25 0 0010.1-4c2.4-1.7 9-9.7 9.8-11.9.8-2.2 5.1-19 5.8-19.4.6-.4 6.1.6 6 1 0 .3-3.5 19.8-4.7 22.7z"/>
  <path fill="#FFC7B6" d="M41.1 51s.2 2.4-2.5 3.2c-2.7.9-5-2.4-5.3-2.9-.2-.4.2-3 0-6v-1h7.8v6.6z"/>
  <path fill="#E57A92" d="M41.1 44.3v6.1c-3.2-.6-6.3-2.8-7.7-5v-1.1H41z"/>
  <path fill="#FFC7B6" d="M44 30.5c-1.4 4-11.6 6.5-11.6 6.5s.3 3.1-.1 4.3c-.7-1-1.7-3.6-1.7-3.6s-3 .7-2.3 3c.6 2.4 3.1 1.4 3.1 1.4s2.4 6.5 9.4 5.5 4-10.5 3.2-17.1z"/>
  <path stroke="#E57A92" stroke-linecap="round" stroke-linejoin="round" stroke-miterlimit="10" stroke-width=".3" d="M29.2 39.7c.7-.8 1.8.6.8 1.3M40 38.3l1.3 2c.3.4.2 1-.3 1.2l-.6.4"/>
  <path fill="#fff" d="M37.7 43.3h2.9l.2.2c-.1.4-.5 1.3-1.7 1.3-1.1 0-1.5-.9-1.6-1.3 0 0 0-.2.2-.2z"/>
  <path fill="#121B42" d="M43.5 38.1a.6.6 0 11-1.1.4.6.6 0 011-.4zM37.2 39.7a.6.6 0 11-1.1.3.6.6 0 011-.3z"/>
  <path stroke="#121B42" stroke-linecap="round" stroke-linejoin="round" stroke-miterlimit="10" stroke-width=".5" d="M41.3 36.5s1-1 2.5-.3M37.2 37.3s-1.5-.5-2.4.8"/>
  <path fill="#C23D53" d="M27.6 75.8c-.5-2.8-2.7-8.2-2.7-8.2s3.2-5 3.3-4.4c0 .5.3 6.7-.6 12.6z"/>
  <path fill="#F66" d="M58.2 85.6L27.7 89v-3.2l29.6-3.2 1 3zM56.9 81.2l-29.1 3.2v-3.1L56 78.2l.9 3zM55.7 76.8l-28 3v-3l27.5-3.1a17.2 17.2 0 00.5 3z"/>
  <path stroke="#FF842A" stroke-linecap="round" stroke-linejoin="round" stroke-miterlimit="10" stroke-width="2.4" d="M103.6 79.2l-3.8-.7 2.8-15.4 16.6 3-.4 2.5c-1.3 7-8.1 11.8-15.2 10.6zM91.9 77l3.7.8 2.8-15.4-16.7-3-.4 2.5C80 69 84.8 75.9 91.9 77z"/>
  <path fill="#FF842A" d="M96 97.8l-3.5-.7 2.8-15.7 3.6.7L96 97.8z"/>
  <path fill="#FFB32A" d="M113.5 56.3l-4 22.3c0 .5-.2 1-.3 1.4a11.7 11.7 0 01-22.7-5.5l4-22.3 23 4.1zM103.9 101.5l-20-3.6.4-2.2c.2-1.3 1.4-2 2.6-1.9l15.5 2.8c1.3.2 2 1.4 1.9 2.7l-.4 2.2z"/>
  <path fill="#121B42" d="M106.6 111.8l-28.8-5.2a1 1 0 01-.7-1l1.4-7.7c0-.5.5-.8 1-.7l28.8 5c.5.2.8.6.7 1.1l-1.4 7.7c0 .5-.5.9-1 .8z"/>
  <path fill="#455693" d="M100 108.1l-14.7-2.6a.8.8 0 01-.7-1l.6-3c0-.5.5-.8 1-.7l14.6 2.6c.5 0 .8.5.7 1l-.6 3c0 .5-.5.8-1 .7z"/>
  <path fill="#FF842A" d="M112.3 63l-.7 3.6-23-4 .7-3.7 23 4.1zM111 69.7l-.6 3.6-23-4 .7-3.7 23 4.1zM109.9 76.4l-.4 2.2c0 .5-.2 1-.3 1.4l-22.8-4 .1-1.5.4-2.2 23 4.1z"/>
  <path fill="#4869EE" d="M105.5 30.5a2.1 2.1 0 11-4.2 0 2.1 2.1 0 014.2 0z"/>
  <path fill="#F25453" d="M94 3.7a1 1 0 11-2 0 1 1 0 012 0zM193.3 80a1 1 0 11-2 0 1 1 0 012 0z"/>
  <path fill="#FFB32A" d="M7.8 101.3a1 1 0 11-2 0 1 1 0 012 0z"/>
  <path fill="#4869EE" d="M169.5 21a1 1 0 11-2 0 1 1 0 012 0z"/>
  <path fill="#41CF7B" d="M34.3 8.9a1 1 0 11-2 0 1 1 0 012 0zM149.4 5.8a2.1 2.1 0 11-4.2 0 2.1 2.1 0 014.2 0z"/>
  <path fill="#FFB32A" d="M9 23.1a2.1 2.1 0 11-4.3 0 2.1 2.1 0 014.2 0z"/>
</svg>
